<?xml version="1.0" encoding="UTF-8"?>
<svg id="Capa_2" data-name="Capa 2" xmlns="http://www.w3.org/2000/svg" viewBox="0 0 76 76">
  <defs>
    <style>
      .cls-1 {
        fill: #fff;
        stroke-width: 0px;
      }
    </style>
  </defs>
  <g id="Capa_1-2" data-name="Capa 1">
    <path class="cls-1" d="M23,0C10.33,0,0,10.33,0,23v30c0,12.67,10.33,23,23,23h30c12.67,0,23-10.33,23-23v-30c0-12.67-10.33-23-23-23h-30ZM23,6h30c9.42,0,17,7.58,17,17v30c0,9.42-7.58,17-17,17h-30c-9.42,0-17-7.58-17-17v-30c0-9.42,7.58-17,17-17ZM58,14c-2.21,0-4,1.79-4,4s1.79,4,4,4,4-1.79,4-4-1.79-4-4-4ZM38,18c-11.01,0-20,8.99-20,20s8.99,20,20,20,20-8.99,20-20-8.99-20-20-20ZM38,24c7.77,0,14,6.23,14,14s-6.23,14-14,14-14-6.23-14-14,6.23-14,14-14Z"/>
  </g>
</svg>