<?xml version="1.0" encoding="UTF-8"?>
<!DOCTYPE svg PUBLIC '-//W3C//DTD SVG 1.0//EN'
          'http://www.w3.org/TR/2001/REC-SVG-20010904/DTD/svg10.dtd'>
<svg data-name="Capa 2" height="252" viewBox="0 0 387.04 251.56" width="387" xmlns="http://www.w3.org/2000/svg" xmlns:xlink="http://www.w3.org/1999/xlink"
><g data-name="Capa 3"
  ><g
    ><path d="M243.86 43.34L243.86 72.03 217.11 85.77 220.79 87.66 243.46 99.31 243.46 121.89 220.79 121.89 220.79 111.07 194.33 97.48 167.02 111.51 167.02 121.89 144.35 121.89 144.35 99.75 167.02 88.1 171.55 85.77 144.35 71.8 144.35 48.38 194.33 74.07 194.34 74.07 226.21 57.69 167.02 27.27 144.35 15.62 144.35 0 167.02 0 167.02 3.86 243.86 43.34z" fill="#f6f6f6"
      /><path d="M98.49,151.04h74.24v12.84h-63v12.93h57.04v12.93h-57.04v13l63-.07v12.82h-73.13c-4.11,0-7.45-3.33-7.45-7.45v-50.66c0-3.5,2.84-6.33,6.33-6.33Z" fill="#fff"
      /><path d="M184.38,198.6v-30.09c0-11.04,7.15-17.47,19.01-17.47h62.17v12.69s-56.65,0-56.65,0c-4.6,0-7.15,1.23-7.15,5.32v25.16c0,3.68,2.15,5.72,5.93,5.72h41.59v-17.06h16.34l-.08,25.63c-.01,3.86-3.14,6.98-7.01,6.98h-54.93c-11.85,0-19.21-6.15-19.21-16.88Z" fill="#fff"
      /><path d="M278.09,151.04h16.66v64.44h-16.66v-64.44Z" fill="#fff"
      /><path d="M67.6,196.82c2.85-1.51,5.42-3.55,7.52-6.01,8.89-10.44,6.66-27.47-4.5-35.3-2-1.41-4.17-2.57-6.44-3.49-.77-.31-1.94-.97-2.81-.97H0v16.96h57.52s0,0,0,0c4.06.04,7.34,3.34,7.34,7.4s-3.32,7.41-7.41,7.41H0v32.67h17.58v-15.7l27.34-.14,19.3,15.87,16.58-.04.03-8-13.22-10.67Z" fill="#fff"
      /><g fill="#fff"
      ><path d="M387.04 195.91L387.04 151.04 369.78 151.04 369.93 182.6 387.04 195.91z"
        /><path d="M369.98 193.04L320.38 151.04 307.77 151.04 307.77 215.49 325.04 215.49 325.04 176.94 372.04 215.49 387.04 215.49 387.04 207.22 369.98 193.04z"
      /></g
      ><path d="M52.2,237.67h11.78c2.3,0,3.75,1.44,3.75,3.62v1.9c0,2.3-1.38,3.66-3.88,3.66h-7.95v4.33h-3.7v-13.51ZM63.12,243.48c.71,0,.97-.37.97-.82v-.88c0-.41-.41-.8-.97-.8h-7.22v2.5h7.22Z" fill="#fff"
      /><path d="M85.03,247.51v-9.84h3.66v8.87c0,.82.43,1.29,1.31,1.29h5.64c.95,0,1.31-.39,1.31-1.29l-.02-8.87h3.62v9.82c0,2.35-1.53,3.68-4.07,3.68h-7.37c-2.5,0-4.09-1.36-4.09-3.66Z" fill="#fff"
      /><path d="M133.39,246.69v1.18c0,1.94-1.44,3.3-3.45,3.3h-12.08v-13.51h12.02c2.11,0,3.49,1.25,3.49,3.14v1.14c0,1.14-.62,1.98-1.57,2.35,1.01.43,1.59,1.31,1.59,2.39ZM121.56,242.71h7.35c.56,0,.78-.39.78-.8v-.34c0-.32-.22-.58-.8-.58h-7.32v1.72ZM128.91,246.04h-7.35v1.79h7.35c.5,0,.82-.28.84-.69v-.47c.02-.41-.34-.62-.84-.62Z" fill="#fff"
      /><path d="M150.67,237.67h3.7v10.17h10.9v3.34h-14.6v-13.51Z" fill="#fff"
      /><path d="M180.7,237.67h3.68v13.51h-3.68v-13.51Z" fill="#fff"
      /><path d="M234.03,237.67h3.68v13.51h-3.68v-13.51Z" fill="#fff"
      /><path d="M255.44,237.67h11.57c2.52,0,3.96,1.38,3.96,3.75v6.03c0,2.39-1.46,3.73-4.01,3.73h-11.52v-13.51ZM266.13,247.83c.88,0,1.21-.32,1.21-1.16v-4.52c0-.82-.34-1.16-1.29-1.16h-6.89v6.85h6.98Z" fill="#fff"
      /><path d="M298.52,248.82h-7.43l-1.25,2.35h-4.18l7.34-13.51h3.64l7.32,13.51h-4.2l-1.25-2.35ZM296.74,245.48l-1.92-3.6-1.94,3.6h3.86Z" fill="#fff"
      /><path d="M319.78,237.67h11.57c2.52,0,3.96,1.38,3.96,3.75v6.03c0,2.39-1.46,3.73-4.01,3.73h-11.52v-13.51ZM330.47,247.83c.88,0,1.21-.32,1.21-1.16v-4.52c0-.82-.34-1.16-1.29-1.16h-6.89v6.85h6.98Z" fill="#fff"
      /><path d="M209.73,251.56c-1.31,0-2.53-.17-3.64-.53-1.11-.35-2.09-.85-2.93-1.51-.84-.65-1.49-1.43-1.95-2.33s-.69-1.89-.69-2.99.24-2.04.72-2.93c.48-.89,1.14-1.67,1.97-2.33.83-.66,1.81-1.17,2.93-1.52,1.12-.35,2.33-.53,3.63-.53.9,0,1.78.09,2.63.28.85.19,1.64.45,2.37.79.72.34,1.34.72,1.84,1.15l-2.29,2.59c-.38-.31-.8-.59-1.27-.84-.47-.25-.98-.45-1.54-.59-.57-.14-1.2-.21-1.9-.21-.66,0-1.29.09-1.89.28-.6.19-1.14.46-1.62.81s-.86.79-1.14,1.31-.42,1.11-.42,1.77.14,1.23.44,1.75c.29.52.69.96,1.2,1.32s1.1.63,1.76.81c.66.18,1.37.27,2.12.27s1.36-.08,1.92-.25,1.08-.38,1.53-.65c.46-.26.86-.52,1.21-.76l1.85,2.65c-.43.35-.99.69-1.71,1.02-.71.33-1.5.6-2.38.82-.88.22-1.8.32-2.76.32Z" fill="#fff"
    /></g
  ></g
></svg>
