<?xml version="1.0" encoding="UTF-8"?>
<svg id="Capa_2" data-name="Capa 2" xmlns="http://www.w3.org/2000/svg" viewBox="0 0 507.93 113.8">
  <defs>
    <style>
      .cls-1 {
        fill: #3bdab9;
      }

      .cls-1, .cls-2 {
        stroke-width: 0px;
      }

      .cls-2 {
        fill: #fff;
      }
    </style>
  </defs>
  <g id="Capa_1-2" data-name="Capa 1">
    <g>
      <polygon class="cls-1" points="92.91 40.46 92.91 67.25 67.93 80.08 71.37 81.84 92.53 92.72 92.53 113.8 71.37 113.8 71.37 103.7 46.66 91.01 21.17 104.11 21.17 113.8 0 113.8 0 93.13 21.17 82.25 25.39 80.08 0 67.03 0 45.17 46.66 69.15 46.67 69.15 76.43 53.86 21.17 25.46 0 14.58 0 0 21.17 0 21.17 3.6 92.91 40.46"/>
      <g>
        <path class="cls-2" d="M219.38,49.31h74.24v12.84h-63v12.93h57.04v12.93h-57.04v13l63-.07v12.82h-73.13c-4.11,0-7.45-3.33-7.45-7.45v-50.66c0-3.5,2.84-6.33,6.33-6.33Z"/>
        <path class="cls-2" d="M305.27,96.88v-30.09c0-11.04,7.15-17.47,19.01-17.47h62.17v12.69s-56.65,0-56.65,0c-4.6,0-7.15,1.23-7.15,5.32v25.16c0,3.68,2.15,5.72,5.93,5.72h41.59v-17.06h16.34l-.08,25.63c-.01,3.86-3.14,6.98-7.01,6.98h-54.93c-11.85,0-19.21-6.15-19.21-16.88Z"/>
        <path class="cls-2" d="M398.98,49.31h16.66v64.44h-16.66V49.31Z"/>
        <path class="cls-2" d="M188.49,95.09c2.85-1.51,5.42-3.55,7.52-6.01,8.89-10.44,6.66-27.47-4.5-35.3-2-1.41-4.17-2.57-6.44-3.49-.77-.31-1.94-.97-2.81-.97h-61.38v16.96h57.52s0,0,0,0c4.06.04,7.34,3.34,7.34,7.4s-3.32,7.41-7.41,7.41h-57.45v32.67h17.58v-15.7l27.34-.14,19.3,15.87,16.58-.04.03-8-13.22-10.67Z"/>
        <g>
          <polygon class="cls-2" points="507.93 94.18 507.93 49.31 490.67 49.31 490.82 80.88 507.93 94.18"/>
          <polygon class="cls-2" points="490.87 91.32 441.27 49.31 428.66 49.31 428.66 113.76 445.93 113.76 445.93 75.22 492.93 113.76 507.93 113.76 507.93 105.5 490.87 91.32"/>
        </g>
      </g>
    </g>
  </g>
</svg>