<?xml version="1.0" encoding="UTF-8"?>
<svg version="1.1" viewBox="0 0 832 1016" width="1280" height="1280" xmlns="http://www.w3.org/2000/svg">
<path transform="translate(0)" d="m0 0h189l1 1v33l6 2 22 11 19 10 20 10 19 10 17 9 16 8 23 12 16 8 21 11 38 19 19 10 15 8 16 8 47 24 27 14 19 10 16 8 15 8 16 8 23 12 16 8 21 11 38 19 19 10 15 8 16 8 23 12 32 16 23 12 6 4 1 1v239l-8 5-47 24-27 14-33 17-45 23-52 27-8 5 16 8 47 24 35 18 68 35 16 8 23 12 12 7v187h-190l-1-88-140-72-29-15-45-23-4-2-5 1-29 15-107 55-15 8-42 21-19 10-10 5-1 85h-190v-184l16-8 28-15 26-13 19-10 47-24 17-9 16-8 41-21 12-6h2l-4-4-47-24-109-56-35-18-27-14-2-2v-196l12 5 20 11 16 8 17 9 44 22 19 10 17 9 16 8 15 8 36 18 19 10 20 10 19 10 15 8 16 8 47 24 56 29 12 6 4-1 21-11 16-8 74-38 74-38 72-37 2-2-19-10-82-42-74-38-29-15-45-23-27-14-41-21-109-56-35-18-74-38-29-15-41-21-72-37-2-1z" fill="#99EBDA"/>
</svg>
