<?xml version="1.0" encoding="UTF-8"?>
<svg id="Capa_2" data-name="Capa 2" xmlns="http://www.w3.org/2000/svg" viewBox="0 0 65.03 76">
  <defs>
    <style>
      .cls-1 {
        fill: #fff;
        stroke-width: 0px;
      }
    </style>
  </defs>
  <g id="Capa_1-2" data-name="Capa 1">
    <path class="cls-1" d="M65.03,18.1v12.65c-.62.06-1.23.1-1.87.1-7.1,0-13.35-3.65-16.97-9.17v31.24c0,12.75-10.34,23.09-23.09,23.09S0,65.66,0,52.91s10.34-23.09,23.09-23.09c.48,0,.95.04,1.43.07v11.38c-.48-.06-.94-.15-1.43-.15-6.51,0-11.78,5.28-11.78,11.78s5.27,11.79,11.78,11.79,12.26-5.13,12.26-11.64c0-.25.11-53.06.11-53.06h10.88c1.02,9.72,8.87,17.4,18.68,18.1Z"/>
  </g>
</svg>