<?xml version="1.0" encoding="UTF-8"?>
<svg id="Capa_1" data-name="Capa 1" xmlns="http://www.w3.org/2000/svg" version="1.1" xmlns:xlink="http://www.w3.org/1999/xlink" viewBox="0 0 1180.4 1264.9">
  <defs>
    <style>
      .cls-1 {
        clip-path: url(#clippath-20);
      }

      .cls-2 {
        clip-path: url(#clippath-11);
      }

      .cls-3 {
        clip-path: url(#clippath-16);
      }

      .cls-4 {
        clip-path: url(#clippath-33);
      }

      .cls-5 {
        clip-path: url(#clippath-41);
      }

      .cls-6 {
        clip-path: url(#clippath-32);
      }

      .cls-7 {
        clip-path: url(#clippath-2);
      }

      .cls-8 {
        clip-path: url(#clippath-13);
      }

      .cls-9 {
        clip-path: url(#clippath-37);
      }

      .cls-10 {
        clip-path: url(#clippath-25);
      }

      .cls-11 {
        clip-path: url(#clippath-15);
      }

      .cls-12 {
        clip-path: url(#clippath-6);
      }

      .cls-13 {
        clip-path: url(#clippath-40);
      }

      .cls-14 {
        clip-path: url(#clippath-26);
      }

      .cls-15 {
        fill: none;
      }

      .cls-15, .cls-16, .cls-17 {
        stroke-width: 0px;
      }

      .cls-18 {
        clip-path: url(#clippath-7);
      }

      .cls-19 {
        clip-path: url(#clippath-21);
      }

      .cls-20 {
        clip-path: url(#clippath-34);
      }

      .cls-21 {
        clip-path: url(#clippath-1);
      }

      .cls-22 {
        clip-path: url(#clippath-4);
      }

      .cls-23 {
        clip-path: url(#clippath-38);
      }

      .cls-24 {
        clip-path: url(#clippath-36);
      }

      .cls-25 {
        clip-path: url(#clippath-27);
      }

      .cls-26 {
        clip-path: url(#clippath-12);
      }

      .cls-16 {
        fill: #3bdab9;
      }

      .cls-27 {
        clip-path: url(#clippath-24);
      }

      .cls-28 {
        clip-path: url(#clippath-30);
      }

      .cls-29 {
        clip-path: url(#clippath-22);
      }

      .cls-30 {
        clip-path: url(#clippath-9);
      }

      .cls-31 {
        clip-path: url(#clippath);
      }

      .cls-32 {
        clip-path: url(#clippath-39);
      }

      .cls-33 {
        clip-path: url(#clippath-19);
      }

      .cls-34 {
        clip-path: url(#clippath-31);
      }

      .cls-35 {
        clip-path: url(#clippath-3);
      }

      .cls-36 {
        clip-path: url(#clippath-43);
      }

      .cls-37 {
        clip-path: url(#clippath-8);
      }

      .cls-17 {
        fill: #fff;
      }

      .cls-38 {
        clip-path: url(#clippath-29);
      }

      .cls-39 {
        clip-path: url(#clippath-18);
      }

      .cls-40 {
        clip-path: url(#clippath-14);
      }

      .cls-41 {
        clip-path: url(#clippath-17);
      }

      .cls-42 {
        clip-path: url(#clippath-5);
      }

      .cls-43 {
        clip-path: url(#clippath-42);
      }

      .cls-44 {
        clip-path: url(#clippath-10);
      }

      .cls-45 {
        clip-path: url(#clippath-23);
      }

      .cls-46 {
        clip-path: url(#clippath-28);
      }

      .cls-47 {
        clip-path: url(#clippath-35);
      }
    </style>
    <clipPath id="clippath">
      <rect class="cls-15" x="9.6" y="169.1" width="289.4" height="289.4"/>
    </clipPath>
    <clipPath id="clippath-1">
      <rect class="cls-15" x="263" y="931.3" width="9.1" height="9.8"/>
    </clipPath>
    <clipPath id="clippath-2">
      <rect class="cls-15" x="36.5" y="777.7" width="202.4" height="163.4"/>
    </clipPath>
    <clipPath id="clippath-3">
      <rect class="cls-15" x="187.1" y="777.7" width="85" height="146.2"/>
    </clipPath>
    <clipPath id="clippath-4">
      <rect class="cls-15" x="90.9" y="661.3" width="127.7" height="127.5"/>
    </clipPath>
    <clipPath id="clippath-5">
      <rect class="cls-15" x="575.8" y="902.5" width="13" height="12.2"/>
    </clipPath>
    <clipPath id="clippath-6">
      <rect class="cls-15" x="474" y="905.4" width="217.6" height="290.7"/>
    </clipPath>
    <clipPath id="clippath-7">
      <rect class="cls-15" x="438.9" y="107.6" width="118.5" height="75.9"/>
    </clipPath>
    <clipPath id="clippath-8">
      <rect class="cls-15" x="508.6" y="181.3" width="82.6" height="124.1"/>
    </clipPath>
    <clipPath id="clippath-9">
      <rect class="cls-15" x="608.2" y="56.5" width="118.9" height="114.8"/>
    </clipPath>
    <clipPath id="clippath-10">
      <rect class="cls-15" x="520.3" y="8.8" width="96.3" height="122.9"/>
    </clipPath>
    <clipPath id="clippath-11">
      <rect class="cls-15" x="867.2" y="389" width="99.2" height="44.4"/>
    </clipPath>
    <clipPath id="clippath-12">
      <rect class="cls-15" x="966.4" y="424.1" width="98.1" height="42.9"/>
    </clipPath>
    <clipPath id="clippath-13">
      <rect class="cls-15" x="1066.4" y="389" width="98.7" height="44.4"/>
    </clipPath>
    <clipPath id="clippath-14">
      <rect class="cls-15" x="962.7" y="170.5" width="105.5" height="103.7"/>
    </clipPath>
    <clipPath id="clippath-15">
      <rect class="cls-15" x="860.9" y="665" width="298" height="292.2"/>
    </clipPath>
    <clipPath id="clippath-16">
      <rect class="cls-15" x="514.1" y="559" width="125.6" height="153.1"/>
    </clipPath>
    <clipPath id="clippath-17">
      <rect class="cls-15" x="566.6" y="438.9" width="20.4" height="90.6"/>
    </clipPath>
    <clipPath id="clippath-18">
      <rect class="cls-15" x="549.9" y="400.4" width="53.7" height="47.8"/>
    </clipPath>
    <clipPath id="clippath-19">
      <rect class="cls-15" x="703.6" y="538.9" width="81.4" height="59.2"/>
    </clipPath>
    <clipPath id="clippath-20">
      <rect class="cls-15" x="696.7" y="530.4" width="129.2" height="55" transform="translate(-180.1 490.3) rotate(-32.1)"/>
    </clipPath>
    <clipPath id="clippath-21">
      <rect class="cls-15" x="696.7" y="530.4" width="129.2" height="55" transform="translate(-180.1 490.3) rotate(-32.1)"/>
    </clipPath>
    <clipPath id="clippath-22">
      <rect class="cls-15" x="764.6" y="520.4" width="51.8" height="48.1"/>
    </clipPath>
    <clipPath id="clippath-23">
      <rect class="cls-15" x="696.7" y="530.4" width="129.2" height="55" transform="translate(-180.1 490.3) rotate(-32.1)"/>
    </clipPath>
    <clipPath id="clippath-24">
      <rect class="cls-15" x="696.7" y="530.4" width="129.2" height="55" transform="translate(-180.1 490.3) rotate(-32.1)"/>
    </clipPath>
    <clipPath id="clippath-25">
      <rect class="cls-15" x="366.7" y="531.5" width="87" height="48.1"/>
    </clipPath>
    <clipPath id="clippath-26">
      <polygon class="cls-15" points="441.5 597.9 322.2 548.2 343.4 497.4 462.6 547.1 441.5 597.9"/>
    </clipPath>
    <clipPath id="clippath-27">
      <polygon class="cls-15" points="441.5 597.9 322.2 548.2 343.4 497.4 462.6 547.1 441.5 597.9"/>
    </clipPath>
    <clipPath id="clippath-28">
      <rect class="cls-15" x="333.3" y="513" width="51.8" height="50"/>
    </clipPath>
    <clipPath id="clippath-29">
      <polygon class="cls-15" points="441.5 597.9 322.2 548.2 343.4 497.4 462.6 547.1 441.5 597.9"/>
    </clipPath>
    <clipPath id="clippath-30">
      <polygon class="cls-15" points="441.5 597.9 322.2 548.2 343.4 497.4 462.6 547.1 441.5 597.9"/>
    </clipPath>
    <clipPath id="clippath-31">
      <rect class="cls-15" x="566.6" y="736.4" width="20.4" height="89.4"/>
    </clipPath>
    <clipPath id="clippath-32">
      <rect class="cls-15" x="694.3" y="716.6" width="81.4" height="62.9"/>
    </clipPath>
    <clipPath id="clippath-33">
      <rect class="cls-15" x="724.1" y="694.4" width="55" height="129.2" transform="translate(-301.5 937.8) rotate(-54.9)"/>
    </clipPath>
    <clipPath id="clippath-34">
      <rect class="cls-15" x="724.1" y="694.4" width="55" height="129.2" transform="translate(-301.5 937.8) rotate(-54.9)"/>
    </clipPath>
    <clipPath id="clippath-35">
      <rect class="cls-15" x="753.5" y="749.9" width="51.8" height="50"/>
    </clipPath>
    <clipPath id="clippath-36">
      <rect class="cls-15" x="724.1" y="694.4" width="55" height="129.2" transform="translate(-301.5 937.8) rotate(-54.9)"/>
    </clipPath>
    <clipPath id="clippath-37">
      <rect class="cls-15" x="724.1" y="694.4" width="55" height="129.2" transform="translate(-301.5 937.8) rotate(-54.9)"/>
    </clipPath>
    <clipPath id="clippath-38">
      <rect class="cls-15" x="366.7" y="707.3" width="85.1" height="57.4"/>
    </clipPath>
    <clipPath id="clippath-39">
      <polygon class="cls-15" points="461.9 738.9 348.6 801 322.2 752.7 435.5 690.7 461.9 738.9"/>
    </clipPath>
    <clipPath id="clippath-40">
      <polygon class="cls-15" points="461.9 738.9 348.6 801 322.2 752.7 435.5 690.7 461.9 738.9"/>
    </clipPath>
    <clipPath id="clippath-41">
      <rect class="cls-15" x="335.2" y="733.3" width="51.8" height="48.1"/>
    </clipPath>
    <clipPath id="clippath-42">
      <polygon class="cls-15" points="461.9 738.9 348.6 801 322.2 752.7 435.5 690.7 461.9 738.9"/>
    </clipPath>
    <clipPath id="clippath-43">
      <polygon class="cls-15" points="461.9 738.9 348.6 801 322.2 752.7 435.5 690.7 461.9 738.9"/>
    </clipPath>
  </defs>
  <g class="cls-31">
    <path class="cls-16" d="M154.6,169.1c-1.7,0-3,1.4-3,3.1v42.1c0,4,6,4,6,0v-42.1c0-1.7-1.3-3.1-3.1-3.1ZM83.9,188c-2.3,0-3.6,2.6-2.5,4.6l21.1,36.5c.8,1.4,2.7,1.9,4.1,1.1,1.4-.8,1.9-2.7,1.1-4.1l-21.1-36.5c-.5-1-1.6-1.6-2.8-1.6ZM225.2,188c-1.1,0-2.1.6-2.7,1.6l-21.1,36.5c-.8,1.4-.3,3.3,1.1,4.1,1.4.8,3.3.3,4.1-1.1l21.1-36.5c1.2-2-.2-4.5-2.6-4.6ZM123.6,194.3c-2,0-3.5,1.9-3,3.8l5.5,20.3c1.1,3.8,6.8,2.3,5.8-1.6l-5.5-20.3c-.3-1.3-1.5-2.2-2.8-2.3ZM185.6,194.3c-1.3,0-2.4,1-2.8,2.3l-5.5,20.3c-1,3.9,4.8,5.4,5.8,1.6l5.5-20.3c.5-2-1-4-3.1-3.8ZM69.7,225.3c-2.7,0-4,3.3-2.1,5.2l14.9,14.9c1.2,1.2,3.1,1.2,4.3,0,1.2-1.2,1.2-3.1,0-4.3l-14.9-14.9c-.6-.6-1.4-.9-2.2-.9ZM239.5,225.3c-.8,0-1.5.3-2.1.9l-14.9,14.9c-1.2,1.2-1.2,3.1,0,4.3,1.2,1.2,3.1,1.2,4.3,0l14.9-14.9c2-1.9.6-5.2-2.2-5.2ZM154.6,229.4c-42.6,0-77.2,34.3-77.2,76.6s2.2,20.7,6.1,29.8c3.9,9.2,9.6,17.4,16.5,24.4,3.5,3.5,7.3,6.6,11.4,9.3,3.6,2.4,11.3,8.5,11.3,21.3v37.1c0,17,14,30.8,31.3,30.8s31.3-13.8,31.3-30.8v-37.1c0-.2,0-.4,0-.6.3-12.2,8.7-18.1,12.4-20.6,4.1-2.8,7.9-5.9,11.4-9.3,7-6.9,12.6-15.2,16.6-24.4,3.9-9.2,6.1-19.2,6.1-29.8,0-42.3-34.6-76.6-77.2-76.6ZM154.6,235.5c39.3,0,71.1,31.6,71.1,70.6s-2,19-5.6,27.5c-3.6,8.4-8.8,16-15.2,22.4-3.2,3.2-6.8,6.1-10.5,8.6-4.1,2.7-15.1,10.8-15.1,26.3s0,.4,0,.6v11.5h-21.6v-35.1c6.9-1.1,12.5-6.2,12.5-12.8h0c0-2.8.5-5.4,1.5-7.7,1-2.3,2.4-4.4,4.2-6.2.6-.6,1.3-1.2,2-1.7.9.5,2,.9,3.1.9,3.4,0,6.1-2.8,6.1-6.1s-2.8-6.1-6.1-6.1-6.2,2.8-6.2,6.1h0c-1.1.8-2.2,1.7-3.2,2.7-2.3,2.3-4.2,5.1-5.5,8.1s-2,6.4-2,9.9-3.9,7.2-9.5,7.2-9.5-3.5-9.5-7.1h0c0-9.9-5.7-18.5-13.9-22.8,1.9-1.1,3.6-2.4,5.2-3.9,1.1-1,2-2.2,2.9-3.5.7.8,1.2,1.7,1.7,2.7.7,1.5,2.5,2.1,4,1.4,1.5-.7,2.1-2.6,1.4-4.1-2.4-4.9-6.6-8.2-11.3-9.5-.3,0-.6-.1-.9-.1-3.5,0-4.1,5-.7,5.9.3,0,.6.2.8.3-.6.9-1.4,1.8-2.2,2.7-3.3,3.3-7.9,5.3-12.9,5.3-10.1,0-18.3-8.1-18.3-18.2s.5-4.9,1.4-7c.9-2.2,2.3-4.2,3.9-5.8,1.6-1.6,3.6-3,5.8-3.9.4-.2.9-.3,1.3-.5,0,1.1.3,2.2.5,3.3,1.3,4.9,4.5,8.8,8.6,11.2,2,1.2,4.3,2,6.7,2.3,1.7.3,3.2-.9,3.4-2.6.2-1.7-.9-3.2-2.6-3.4-1.5-.2-2.9-.7-4.2-1.4.6-.2,1.2-.5,1.8-.8,4.1-2.2,6.4-6.9,5.2-11.4-.5-2.1-1.7-4-3.4-5.3-.5-.4-1.2-.7-2-.7-2.9,0-4,3.7-1.8,5.4.6.5,1.1,1.2,1.3,1.9h0c0,0,0,.1,0,.1.4,1.5-.6,3.8-2.2,4.6h0s0,0,0,0c-1.4.8-3.5.5-4.5-.5-.1-.4-.3-.8-.4-1.2-1.8-6.7,2.2-13.4,8.9-15.2,1.7-.4,3.3-.5,4.9-.3s3.1.8,4.5,1.6c1.4.8,2.6,1.9,3.6,3.1.5.6.9,1.3,1.3,2.1.7,1.5,2.6,2.2,4.1,1.4,1.5-.8,2.1-2.6,1.3-4.1-.5-1.1-1.2-2.1-1.9-3.1-.1-.2-.3-.3-.4-.5,3.2-2,6.5-2.6,9.7-1.7,3.7,1,6.5,3.7,8.2,7.7h0c0,0,0,0,0,0,.8,1.7,1.1,3.7.7,5.5-.4,1.8-1.3,2.9-2.3,3.5-1.4.8-2,2.7-1.1,4.1.8,1.5,2.7,2,4.1,1.1,2.6-1.5,4.4-4.2,5.2-7.4.7-3.1.3-6.4-1-9.2,0,0,0,0,0-.1-.3-.7-.7-1.5-1.1-2.2,1.4-.3,2.8-.5,4.2-.5,9.3,0,16.9,6.8,18.1,15.6-1.8.1-3.6.5-5.3,1.2-.2,0-.5.2-.7.3-.2,0-.4.2-.6.4-.5.4-1.2.5-1.9.4-1.5-.3-2.7-1.8-2.4-3.5.1-.9.6-1.6,1.2-2,2.3-1.7,1.1-5.4-1.8-5.4-.7,0-1.3.2-1.9.6-1.8,1.4-3.1,3.5-3.5,5.9-.7,4.9,2.6,9.6,7.4,10.3,2.2.4,4.5-.2,6.2-1.4,2.5-1,5.3-1.1,8,0,5.5,2.2,8.3,8.4,6.1,14-.5,1.4-1.3,2.5-2.2,3.5-.9-.6-2.1-1-3.3-1-3.4,0-6.1,2.8-6.1,6.1s2.8,6.2,6.1,6.2,5.9-2.6,6.1-5.8c2.2-1.8,3.9-4.1,5-6.9,3.3-8.6-.9-18.4-9.5-21.8-.3-.1-.7-.2-1-.3-.9-12.5-11.5-22.4-24.3-22.4s-5.7.5-8.2,1.4c-2-1.8-4.4-3.2-7.1-3.9-2.8-.7-5.7-.7-8.5,0-2.7.6-5.3,1.9-7.6,3.6,0,0-.1,0-.2-.1-2.1-1.2-4.3-2-6.7-2.3-2.4-.3-4.9-.2-7.3.4-6.5,1.7-11.3,6.8-13.1,12.9-1.5.3-2.9.8-4.3,1.3-2.9,1.2-5.5,3-7.7,5.2-2.2,2.2-4,4.8-5.2,7.7-1.2,2.9-1.9,6.1-1.9,9.4,0,13.3,10.9,24.2,24.3,24.2.1,0,.2,0,.3,0,10.9,0,19.6,8.7,19.6,19.4h0c0,6.8,5.6,11.9,12.5,13.1v35.1h-23v-12.1h0c0-15.3-9.6-23.4-14-26.3-3.8-2.5-7.3-5.4-10.5-8.6-6.4-6.4-11.6-14-15.2-22.4-3.6-8.4-5.6-17.7-5.6-27.5,0-39,31.8-70.6,71.2-70.6h0ZM32.5,239.7c-3.2-.1-4.4,4.1-1.6,5.7l36.5,21c1.4.8,3.3.4,4.1-1.1.8-1.5.3-3.3-1.1-4.1l-36.5-21c-.4-.3-.9-.4-1.4-.4ZM277,239.7c-.6,0-1.1.1-1.6.4l-36.5,21c-1.5.8-2,2.7-1.1,4.1.8,1.5,2.7,1.9,4.1,1.1l36.5-21.1c2.7-1.5,1.7-5.5-1.4-5.7ZM38.6,279.2c-3.5,0-4.1,5.1-.7,5.9l20.3,5.4c1.6.5,3.3-.5,3.8-2.1s-.5-3.3-2.2-3.7l-20.3-5.5c-.3,0-.6-.1-.9-.1ZM270.6,279.2c-.3,0-.5,0-.8.1l-20.3,5.4c-1.6.4-2.7,2.1-2.2,3.7.4,1.6,2.1,2.6,3.8,2.1l20.3-5.4c3.5-.9,2.8-6-.8-6h0ZM144,293.5c-1.3,0-2.5.9-2.9,2.1-1.5,4.8-1.3,10.2,1.1,15.3,2.3,5,6.4,8.7,11,10.7,1.6.7,3.3,0,4-1.6.6-1.6-.1-3.3-1.7-4-3.3-1.4-6.1-4-7.9-7.6,0-.2-.2-.4-.3-.6,3.4-.2,6.7-1.3,9.3-3.2,2.4-1.6,1.3-5.4-1.6-5.5-.7,0-1.4.2-1.9.6-1.9,1.4-4.4,2.1-7,2.1,0-1.5.2-2.9.7-4.2.7-2-.8-4-2.9-4ZM111.8,303.1c-.8,0-1.6.3-2.1.8-4.9,4.3-5.4,11.9-1.1,16.8,4.3,4.9,11.9,5.4,16.8,1.1,1.3-1.1,1.4-3,.3-4.3-1.1-1.3-3-1.4-4.3-.3-2.4,2.2-6.1,1.9-8.2-.5-2.2-2.5-1.9-6.1.5-8.3,2.1-1.8.9-5.2-1.9-5.3ZM165.5,306c-2.2,0-3.5,2.4-2.6,4.3,1.2,2.6,2.9,5,5,6.9-2.5,2.2-4.1,5.2-4.8,8.3-.4,1.6.6,3.3,2.2,3.7s3.3-.6,3.6-2.3c.6-2.5,2.1-4.8,4.2-6.2,0,0,.2-.1.3-.2.8.3,1.7.6,2.6.7,5.9,1.2,11.9-.8,16.7-4.8,1.3-1.1,1.5-3,.5-4.3-1.1-1.3-3-1.5-4.3-.4-3.7,3-7.8,4.3-11.7,3.5-3.9-.8-6.9-3.5-8.7-7.6-.5-1.1-1.6-1.9-2.9-1.8h0ZM55.7,310.2H13.5c-1.7,0-3.1,1.3-3.1,3s1.4,3.1,3.1,3h42.1c1.7,0,3.1-1.3,3.1-3,0-1.7-1.4-3.1-3.1-3ZM295.8,310.2h-42.2c-1.7,0-3.1,1.3-3.1,3s1.4,3.1,3.1,3h42.1c1.7,0,3.1-1.3,3.1-3,0-1.7-1.4-3.1-3.1-3ZM147.2,332.4c-1.7,0-3,1.3-3,3-.1,5.8,4.7,10.6,10.6,10.6,5.9,0,10.8-4.6,10.9-10.4,0-4-5.9-4.1-6-.1,0,2.4-2.1,4.5-4.8,4.4-2.7,0-4.7-2-4.6-4.5,0-1.7-1.3-3.1-3-3.1ZM59,335.8c-.3,0-.5,0-.8.1l-20.3,5.5c-1.6.4-2.6,2.1-2.2,3.7.4,1.6,2.1,2.6,3.7,2.1l20.3-5.5c3.5-.9,2.8-6-.8-5.9ZM250.1,335.8c-3.5,0-4.1,5.1-.7,5.9l20.3,5.5c3.9,1,5.5-4.8,1.6-5.8l-20.3-5.4c-.3,0-.6-.1-.9-.1ZM128.8,409h50.6v18.9c0,13.8-11.2,24.8-25.3,24.8s-25.3-11-25.3-24.8v-18.9ZM136.4,419.7c-4,0-4,6,0,6h35.3c1.7,0,3-1.3,3-3s-1.4-3-3-3h-35.3ZM167,433h-25.8c-1.7,0-3.1,1.3-3.1,3s1.4,3.1,3.1,3h25.7c1.7,0,3.1-1.3,3.1-3,0-1.7-1.4-3.1-3.1-3Z"/>
  </g>
  <g class="cls-21">
    <path class="cls-16" d="M272.3,936.2c0,.6-.1,1.1-.3,1.7-.2.5-.5,1-.9,1.4-.4.4-.9.7-1.4.9-.5.2-1.1.3-1.7.3s-1.1-.1-1.7-.3c-.5-.2-1-.5-1.4-.9-.4-.4-.7-.9-.9-1.4-.2-.5-.3-1.1-.3-1.7s.1-1.1.3-1.7c.2-.5.5-1,.9-1.4.4-.4.9-.7,1.4-.9.5-.2,1.1-.3,1.7-.3s1.1.1,1.7.3c.5.2,1,.5,1.4.9.4.4.7.9.9,1.4.2.5.3,1.1.3,1.7Z"/>
  </g>
  <g class="cls-7">
    <path class="cls-16" d="M232.5,824.6c1.6-1.8,2.4-3.9,2.6-6.2,0-1.4-.1-2.8-.6-4.2-.5-1.4-1.2-2.6-2.2-3.6-.5-.5-1-1-1.6-1.4-.6-.4-1.2-.8-1.8-1.1s-1.3-.5-2-.7c-.7-.2-1.4-.3-2.1-.3-.7,0-1.4,0-2.1,0s-1.4.3-2.1.5c-.7.2-1.3.5-1.9.9-.6.3-1.2.7-1.7,1.2l-2.5,2.2c-.4-.9-1-1.7-1.6-2.4-.5-.5-1-1-1.6-1.4-.6-.4-1.2-.8-1.8-1.1-.6-.3-1.3-.5-2-.7-.7-.2-1.4-.3-2.1-.3-.7,0-1.4,0-2.1,0-.7,0-1.4.2-2.1.5-.7.2-1.3.5-1.9.9-.6.3-1.2.7-1.7,1.2l-24,20.7,2.2-9.6c.4-1.5.4-3,.1-4.5s-.9-2.9-1.8-4.2c-1-1.6-2.4-2.8-3.9-3.8-1.6-1-3.3-1.6-5.2-1.8-10.9-1-13.5,11.5-14.4,15.7-1.2,5.7-3.7,10.7-7.6,15-4.5,5.5-12.9,15.7-11.1,31.2,0,.2-.1.5,0,.5l-86.7,60.2v-77.8c0-34.3,27.5-62.3,61.1-62.3h13.6c-4.5-2.5-8.7-5.4-12.6-8.7h-1c-38.5,0-69.8,31.9-69.8,71v86.2c0,.8.2,1.6.6,2.3.4.7,1,1.2,1.7,1.6.7.4,1.5.5,2.3.5.8,0,1.5-.3,2.2-.8l93.5-65c1.4-1,2.4-2.3,3-3.9.7-1.6.9-3.2.7-4.9-1.3-10.9,4-18.4,9.1-24.6,4.8-5.4,7.9-11.7,9.3-18.7,1.9-9,3.9-8.7,5-8.7,1.2.2,2.1.7,2.8,1.7.4.5.5,1.1.3,1.7l-4.4,18.8c-.2.6-.4,1.2-.4,1.9,0,.7,0,1.3.3,1.9s.5,1.2.9,1.7c.4.5.9.9,1.5,1.3s1.2.6,1.8.7,1.3.1,1.9,0c.6-.1,1.3-.3,1.8-.7.6-.3,1.1-.7,1.5-1.2l31-26.8c.2-.2.5-.3.8-.4.3,0,.6-.1.9-.1.3,0,.6,0,.8.2.3.1.5.3.7.5.5.6.8,1.4.7,2.2,0,.4-.2.7-.4,1l-30.1,26c-.5.4-.9.8-1.2,1.3s-.5,1.1-.6,1.7c0,.6,0,1.2.2,1.8s.5,1.1.9,1.6c.4.5.9.8,1.5,1.1.6.3,1.2.4,1.8.4.6,0,1.2-.1,1.8-.4.6-.2,1.1-.6,1.5-1l40.3-34.7c.2-.2.5-.3.7-.4s.6-.1.9-.1.6,0,.8.2c.3.1.5.3.7.5.4.4.5.9.5,1.4,0,.5-.3,1-.7,1.3l-40.3,34.8c-.4.4-.7.8-.9,1.3-.2.5-.3,1-.3,1.6,0,.5,0,1.1.3,1.6.2.5.5,1,.8,1.4.4.4.8.7,1.2,1s1,.4,1.5.5c.5,0,1.1,0,1.6,0,.5-.1,1-.3,1.4-.7l33.6-29c.6-.2,1.2-.3,1.8-.2.6.1,1.1.4,1.6.9.4.4.6.9.5,1.5,0,.5-.3,1-.7,1.3l-33.7,28.7c-.5.4-.9.8-1.2,1.3-.3.5-.5,1.1-.6,1.7,0,.6,0,1.2.2,1.8s.5,1.1.9,1.6c.4.5.9.8,1.5,1.1s1.2.4,1.8.4c.6,0,1.2-.1,1.8-.4.6-.2,1.1-.6,1.5-1l20.5-17.7c.2-.2.5-.3.8-.4.3,0,.6-.1.9-.1.3,0,.6,0,.8.2.3.1.5.3.7.5.4.4.5.9.5,1.4,0,.5-.3,1-.7,1.3l-18.2,15.8-.6.6c-1.6,1.4-3.3,2.9-4.9,4.4-4.9,4.8-10.3,9-16.2,12.5-5.6,2.8-11.5,4-17.7,3.9h-.4c-3.1,0-5.9,1.1-8.2,3.2l-36.7,36.8c-.4.4-.8.9-1,1.4-.2.5-.4,1.1-.4,1.7,0,.6,0,1.2.3,1.7.2.6.5,1,1,1.5.4.4.9.7,1.5,1,.6.2,1.1.3,1.7.3.6,0,1.2-.1,1.7-.4.5-.2,1-.6,1.4-1l36.6-36.7c.7-.4,1.4-.7,2.2-.7,7.8.3,15.2-1.3,22.2-4.8,6.6-3.8,12.5-8.4,17.9-13.7,1.7-1.5,3.4-3.1,5.1-4.5l18.5-16.2c.5-.5,1-1,1.5-1.5s.8-1.2,1.1-1.8c.3-.6.6-1.3.8-2,.2-.7.3-1.4.3-2.1,0-.7,0-1.4,0-2.1-.1-.7-.3-1.4-.5-2.1s-.5-1.3-.9-1.9c-.4-.6-.8-1.2-1.3-1.7-.4-.4-.8-.8-1.3-1.2l4.8-4.2c.5-.5,1-1,1.5-1.5.4-.6.8-1.2,1.1-1.8.3-.6.6-1.3.8-2,.2-.7.3-1.4.3-2.1,0-.7,0-1.4,0-2.1s-.3-1.4-.5-2.1-.5-1.3-.9-1.9c-.4-.6-.8-1.2-1.3-1.7-.6-.6-1.3-1.1-2.1-1.6Z"/>
  </g>
  <g class="cls-35">
    <path class="cls-16" d="M202.4,779.1h-1.1c-3.9,3.4-8.1,6.3-12.6,8.7h13.7c33.7,0,61.1,27.9,61.1,62.3v68.7c0,.6.1,1.1.3,1.7.2.5.5,1,.9,1.4s.9.7,1.4.9c.5.2,1.1.3,1.7.3s1.1-.1,1.7-.3c.5-.2,1-.5,1.4-.9s.7-.9.9-1.4c.2-.5.3-1.1.3-1.7v-68.7c0-39.1-31.4-71-69.8-71Z"/>
  </g>
  <g class="cls-22">
    <path class="cls-16" d="M154.4,787.8c2.1,0,4.1-.1,6.2-.3,2.1-.2,4.1-.5,6.1-.9s4-.9,6-1.5c2-.6,3.9-1.3,5.8-2.1s3.8-1.7,5.6-2.7,3.6-2,5.3-3.2c1.7-1.1,3.4-2.4,5-3.7,1.6-1.3,3.1-2.7,4.6-4.2,1.5-1.5,2.9-3,4.2-4.6,1.3-1.6,2.5-3.3,3.7-5,1.2-1.7,2.2-3.5,3.2-5.3,1-1.8,1.9-3.7,2.7-5.6.8-1.9,1.5-3.9,2.1-5.8.6-2,1.1-4,1.5-6s.7-4.1.9-6.1c.2-2.1.3-4.1.3-6.2s-.1-4.1-.3-6.2c-.2-2.1-.5-4.1-.9-6.1s-.9-4-1.5-6c-.6-2-1.3-3.9-2.1-5.8-.8-1.9-1.7-3.8-2.7-5.6-1-1.8-2-3.6-3.2-5.3-1.1-1.7-2.4-3.4-3.7-5-1.3-1.6-2.7-3.1-4.2-4.6-1.5-1.5-3-2.9-4.6-4.2-1.6-1.3-3.3-2.5-5-3.7-1.7-1.2-3.5-2.2-5.3-3.2s-3.7-1.9-5.6-2.7-3.9-1.5-5.8-2.1c-2-.6-4-1.1-6-1.5s-4.1-.7-6.1-.9c-2.1-.2-4.1-.3-6.2-.3s-4.1.1-6.2.3c-2.1.2-4.1.5-6.1.9s-4,.9-6,1.5c-2,.6-3.9,1.3-5.8,2.1s-3.8,1.7-5.6,2.7c-1.8,1-3.6,2-5.3,3.2-1.7,1.1-3.4,2.4-5,3.7-1.6,1.3-3.1,2.7-4.6,4.2-1.5,1.5-2.9,3-4.2,4.6-1.3,1.6-2.6,3.3-3.7,5-1.1,1.7-2.2,3.5-3.2,5.3-1,1.8-1.9,3.7-2.7,5.6s-1.5,3.9-2.1,5.8c-.6,2-1.1,4-1.5,6s-.7,4.1-.9,6.1c-.2,2.1-.3,4.1-.3,6.2s.1,4.1.3,6.2c.2,2.1.5,4.1.9,6.1s.9,4,1.5,6c.6,2,1.3,3.9,2.1,5.8s1.7,3.8,2.7,5.6c1,1.8,2,3.6,3.2,5.3,1.1,1.7,2.4,3.4,3.7,5,1.3,1.6,2.7,3.1,4.2,4.6,1.5,1.5,3,2.9,4.6,4.2,1.6,1.3,3.3,2.5,5,3.7,1.7,1.2,3.5,2.2,5.3,3.2,1.8,1,3.7,1.9,5.6,2.7s3.9,1.5,5.8,2.1c2,.6,4,1.1,6,1.5s4.1.7,6.1.9c2.1.2,4.1.3,6.2.3ZM154.4,670c1.8,0,3.6,0,5.3.3s3.5.4,5.3.8c1.7.3,3.5.8,5.2,1.3,1.7.5,3.4,1.1,5,1.8,1.7.7,3.3,1.4,4.8,2.3,1.6.8,3.1,1.8,4.6,2.8,1.5,1,2.9,2.1,4.3,3.2,1.4,1.1,2.7,2.3,4,3.6s2.5,2.6,3.6,4c1.1,1.4,2.2,2.8,3.2,4.3,1,1.5,1.9,3,2.7,4.6.8,1.6,1.6,3.2,2.3,4.8.7,1.6,1.3,3.3,1.8,5,.5,1.7,1,3.4,1.3,5.2.3,1.8.6,3.5.8,5.3s.3,3.6.3,5.3,0,3.6-.3,5.4-.4,3.5-.8,5.3c-.3,1.7-.8,3.5-1.3,5.2-.5,1.7-1.1,3.4-1.8,5-.7,1.6-1.4,3.3-2.3,4.8-.8,1.6-1.8,3.1-2.7,4.6-1,1.5-2.1,2.9-3.2,4.3-1.1,1.4-2.3,2.7-3.6,4s-2.6,2.5-4,3.6c-1.4,1.1-2.8,2.2-4.3,3.2-1.5,1-3,1.9-4.6,2.8-1.6.8-3.2,1.6-4.8,2.3-1.6.7-3.3,1.3-5,1.8s-3.4,1-5.2,1.3c-1.8.3-3.5.6-5.3.8s-3.6.3-5.3.3-3.6,0-5.4-.3-3.5-.4-5.3-.8c-1.8-.3-3.5-.8-5.2-1.3-1.7-.5-3.4-1.1-5-1.8-1.6-.7-3.3-1.4-4.8-2.3-1.6-.8-3.1-1.8-4.6-2.8-1.5-1-2.9-2.1-4.3-3.2-1.4-1.1-2.7-2.3-4-3.6s-2.5-2.6-3.6-4-2.2-2.8-3.2-4.3c-1-1.5-1.9-3-2.8-4.6-.8-1.6-1.6-3.2-2.3-4.8-.7-1.6-1.3-3.3-1.8-5-.5-1.7-1-3.4-1.3-5.2-.3-1.8-.6-3.5-.8-5.3-.2-1.8-.3-3.6-.3-5.4s0-3.6.3-5.3c.2-1.8.4-3.5.8-5.3.3-1.7.8-3.5,1.3-5.2.5-1.7,1.1-3.4,1.8-5,.7-1.6,1.4-3.3,2.3-4.8.8-1.6,1.8-3.1,2.8-4.6,1-1.5,2.1-2.9,3.2-4.3s2.3-2.7,3.6-4,2.6-2.5,4-3.6c1.4-1.1,2.8-2.2,4.3-3.2,1.5-1,3-1.9,4.6-2.8,1.6-.8,3.2-1.6,4.8-2.3,1.6-.7,3.3-1.3,5-1.8,1.7-.5,3.4-1,5.2-1.3,1.7-.3,3.5-.6,5.3-.8s3.6-.3,5.4-.3Z"/>
  </g>
  <path class="cls-16" d="M496.9,1011.5c0,47.4,38.6,86,86,86s86-38.6,86-86-38.6-86-86-86-86,38.6-86,86ZM582.9,936.9c41.1,0,74.6,33.4,74.6,74.6s-33.4,74.6-74.6,74.6-74.6-33.4-74.6-74.6,33.4-74.6,74.6-74.6"/>
  <path class="cls-16" d="M529.8,1001.2l22.2,21.9-5.1,30.8c-.4,2.1.5,4.3,2.3,5.6,1.8,1.3,4.1,1.5,6,.5l27.7-14.4,27.7,14.4c1.9,1,4.2.8,6-.5,1.8-1.3,2.6-3.4,2.3-5.6l-5.1-30.8,22.2-21.9c1.6-1.5,2.1-3.8,1.4-5.9s-2.5-3.6-4.6-3.9l-30.9-4.6-14-27.9c-1-1.9-3-3.2-5.1-3.2s-4.2,1.2-5.1,3.2l-14,27.9-30.9,4.6c-2.1.3-3.9,1.8-4.6,3.9-.7,2.1-.1,4.3,1.4,5.9ZM568.5,997.7c1.8-.3,3.4-1.4,4.3-3.1l10.2-20.3,10.2,20.3c.8,1.7,2.4,2.8,4.3,3.1l22.5,3.4-16.2,15.9c-1.3,1.3-1.9,3.2-1.6,5l3.7,22.4-20.2-10.5c-.8-.4-1.7-.6-2.6-.6s-1.8.2-2.6.6l-20.2,10.5,3.7-22.4c.3-1.8-.3-3.7-1.6-5l-16.2-15.9,22.5-3.4"/>
  <g class="cls-42">
    <path class="cls-16" d="M588.7,908.2c0,3.2-2.6,5.7-5.7,5.7s-5.7-2.6-5.7-5.7,2.6-5.7,5.7-5.7,5.7,2.6,5.7,5.7"/>
  </g>
  <g class="cls-12">
    <path class="cls-16" d="M555.9,905.9c-48.2,12.3-81.9,55.7-81.9,105.6s13,60.1,35.9,80.8l-34.6,60.9c-1.1,2-1,4.4.4,6.2,1.3,1.8,3.6,2.7,5.8,2.2l39.2-8.1,13.8,38.9c.8,2.1,2.7,3.6,4.9,3.8,2.2.2,4.4-.9,5.5-2.9l38.1-66.9,38.1,66.9c1,1.8,2.9,2.9,5,2.9s.3,0,.5,0c2.2-.2,4.2-1.7,4.9-3.8l13.8-38.9,39.2,8.1c2.2.5,4.5-.4,5.8-2.2,1.3-1.8,1.5-4.3.4-6.2l-34.6-60.9c22.9-20.7,35.9-49.8,35.9-80.8,0-49.9-33.7-93.3-81.9-105.6-3.1-.8-6.2,1.1-7,4.1-.8,3.1,1.1,6.2,4.1,7,43.2,11,73.3,49.9,73.3,94.5s-44.1,97.5-97.5,97.5-97.5-43.3-97.5-97.5,30.1-83.5,73.3-94.5c3.1-.8,4.9-3.9,4.1-7-.8-3.1-3.9-4.9-7-4.1ZM541.1,1176.7l-11.3-31.8c-1-2.7-3.8-4.3-6.6-3.7l-31.7,6.6,27.3-48.2c15.9,11.6,34.8,18.7,54.5,20.4l-32.2,56.7ZM642.6,1141.2c-2.8-.6-5.6,1-6.6,3.7l-11.3,31.8-32.2-56.7c19.6-1.7,38.5-8.8,54.5-20.4l27.3,48.2-31.7-6.6"/>
  </g>
  <g class="cls-18">
    <path class="cls-16" d="M482.9,131.6l1.3,39.3-13.3.4-1.3-39.3,13.3-.4ZM555.9,140.7c-.1-3.4-1.8-6.2-4.8-7.9,1.6-1.8,2.5-4.2,2.4-6.7,0-2.6-1.2-4.9-3-6.7s-4.3-2.7-6.9-2.6l-16.4.7c-1.3,0-2.3,1.1-2.3,2.4,0,.6.3,1.2.8,1.7.5.4,1.1.7,1.7.6l16.4-.7c1.3,0,2.5.4,3.5,1.3,1,.9,1.5,2.1,1.5,3.4,0,2.6-1.9,4.8-4.4,5h-.3s0,.1,0,.1c-1,.3-1.7,1.2-1.6,2.3h0c0,1.1.8,2,1.8,2.2h0c0,.1,0,.1,0,.1.2,0,.4,0,.6,0,3,0,6.2,1.4,6.3,4.8,0,2.7-2,4.9-4.7,5h-.7s0,0,0,0c-.1,0-.3,0-.5,0h-.9c0,.1,0,.3,0,.3-.8.4-1.3,1.3-1.3,2.2,0,1.3,1.1,2.3,2.4,2.3h.3c2.6,0,4.8,2.1,4.9,4.7,0,1.3-.4,2.5-1.3,3.5s-2.1,1.5-3.4,1.5c0,0-1.1,0-1.6.1-.6,0-1.2.3-1.6.7-.4.5-.7,1.1-.6,1.7,0,1.3,1.1,2.3,2.3,2.3h.3c1.9.2,3.4,1.8,3.4,3.7,0,1-.3,2-1,2.7-.7.7-1.6,1.2-2.6,1.2l-12.7.5c0,0-.1,0-.2,0h-.2s-3.2.1-16.4.5c-8,.2-12.1-1.8-15.8-3.6-3.1-1.5-6-3-10.4-2.9l-1.1-33.5c5.7-.8,9.3-4.3,14.3-9.1,3-2.9,6.4-6.1,11.1-9.6,0,0,0,0,0,0,0,0,0,0,0,0h0s0,0,0,0c1.6-1.4,3.6-2.2,5.7-2.3,1.5,0,3,.3,4.3.9,0,0,.3.2.6.4,2.7,1.6,3.9,2.2,4.4,2.3,0,0,.1,0,.2,0,.2,0,.2,0,.3,0h0c.6,0,1.2-.3,1.6-.8.4-.5.7-1.1.6-1.7,0-.6-.3-1.2-.7-1.6-.5-.5-4.6-2.7-4.7-2.7-2.1-1.1-4.4-1.6-6.8-1.6-3.2.1-6.2,1.3-8.6,3.4-4.9,3.6-8.4,7-11.5,10-4.3,4.1-7.2,6.9-11.1,7.8,0-1.3-1.1-2.3-2.4-2.2l-15.6.5v-1c0-.6-.3-1.2-.8-1.6-.4-.4-1-.7-1.7-.6l-25.9.8c-1.3,0-2.3,1.1-2.2,2.4,0,1.3,1.1,2.3,2.4,2.2l23.6-.8,1.6,48.1-23.6.8c-1.3,0-2.3,1.1-2.2,2.4,0,.6.3,1.2.7,1.6.5.4,1,.7,1.7.6l25.9-.9c1.3,0,2.3-1.1,2.2-2.4v-3.1c-.1,0,15.5-.5,15.5-.5.6,0,1.2-.3,1.6-.7s.7-1,.6-1.7v-1c3.2,0,5.4,1.1,8.1,2.4,2,1,4.2,2.1,7,2.9,3.3.9,6.8,1.3,10.9,1.2h2.7c.2,0,.4,0,.5,0l13.6-.4h0l12.7-.5c.3,0,.6,0,.9,0,4.3-.6,7.5-4.3,7.3-8.7,0-1.9-.7-3.7-1.9-5.1,2.9-1.8,4.6-5,4.5-8.5,0-2.6-1.2-5-3.1-6.8,2.3-1.9,3.6-4.8,3.5-7.8"/>
  </g>
  <g class="cls-37">
    <path class="cls-16" d="M565.7,261.4l-3.7,12.7-37.8-10.9,3.7-12.7,37.8,10.9ZM584.9,195.5c-1.8-.5-3.7-.4-5.4.2-.8-3.3-3.3-5.9-6.7-6.9-2.5-.7-5.1-.4-7.4.9-1.1-2.8-3.4-4.9-6.3-5.8-3.3-.9-6.5-.2-9,2.1-1.2-2.1-3.2-3.7-5.6-4.4-5.1-1.5-10.4,1.5-11.9,6.6l-4.4,15.8c-.2.6-.1,1.3.2,1.8.3.5.8,1,1.4,1.1s1.2.1,1.8-.2,1-.8,1.1-1.4l4.4-15.8c.4-1.3,1.2-2.3,2.3-2.9,1.1-.6,2.5-.8,3.7-.4,2.5.7,4,3.3,3.4,5.8v.3c0,0,0,0,0,0,0,1,.7,2,1.7,2.3h0c1,.3,2.1-.1,2.6-1h.1s0,0,0,0c0-.2.1-.4.2-.6.8-2.8,3.2-5.4,6.5-4.5,2.6.8,4.1,3.5,3.3,6l-.2.6h0c0,.2,0,.3-.1.5l-.2.9h.2c.2.9.8,1.7,1.7,1.9,1.3.4,2.6-.4,2.9-1.6v-.3c.9-2.5,3.5-3.9,6.1-3.2,1.3.4,2.3,1.2,2.9,2.3.6,1.1.8,2.5.4,3.7,0,0-.3,1-.4,1.6-.4,1.3.4,2.6,1.6,2.9,1.2.4,2.5-.3,2.9-1.5v-.3c.9-1.8,2.8-2.7,4.6-2.2,2,.6,3.2,2.7,2.6,4.7l-3.4,12.3c0,0,0,.1,0,.2v.2c0,0-1,3.2-4.7,15.7-2.3,7.7-5.5,11-8.3,13.9-2.4,2.5-4.7,4.8-6,9l-32.2-9.3c.9-5.7-1.3-10.2-4.3-16.4-1.8-3.7-3.9-8-5.7-13.5h0c0,0,0,0,0-.1h0c0,0,0,0,0-.1-.9-1.9-1-4.1-.4-6.1.4-1.4,1.2-2.7,2.2-3.8,0,0,.3-.3.5-.5,2.4-2.1,3.3-3,3.5-3.4,0,0,0-.1,0-.2,0-.1,0-.2.1-.3h0c.4-1.3-.4-2.6-1.6-3-.6-.2-1.2-.1-1.8.2-.6.3-4,3.6-4,3.6-1.7,1.6-2.9,3.7-3.6,6-.9,3.1-.7,6.3.6,9.2,1.9,5.8,4.1,10.1,5.9,14,2.6,5.4,4.4,9,3.9,13-1.2-.3-2.5.4-2.9,1.6l-4.3,15-1-.3c-.6-.2-1.2-.1-1.8.2-.5.3-.9.8-1.1,1.4l-7.2,24.9c-.4,1.2.4,2.5,1.6,2.9.6.2,1.2.1,1.8-.2.5-.3.9-.8,1.1-1.4l6.6-22.7,46.3,13.4-6.6,22.7c-.2.6-.1,1.2.2,1.8.3.5.8.9,1.4,1.1.3,0,.6.1,1,0,.3,0,.5-.1.8-.3.5-.3.9-.8,1.1-1.4l7.2-24.9c.2-.6.1-1.2-.2-1.8-.3-.5-.8-.9-1.4-1.1l-3-.9,4.3-15c.2-.6.1-1.2-.2-1.8-.3-.5-.8-.9-1.4-1.1l-.9-.3c1-3.1,2.7-4.8,4.8-7,1.5-1.6,3.2-3.3,4.9-5.8,1.9-2.8,3.4-6.1,4.5-10l.8-2.6c0-.2.2-.3.2-.5l3.8-13s0,0,0,0l3.4-12.3c1.3-4.5-1.3-9.3-5.8-10.6"/>
  </g>
  <path class="cls-16" d="M688.1,219.2l-22.1,32.6-11-7.4,22.1-32.5,11,7.4ZM718.2,228.1c-.1-.6-.5-1.1-1-1.5l-21.4-14.5c-.5-.3-1.1-.5-1.7-.4-.6.1-1.1.5-1.5,1l-1.8,2.6-12.9-8.7c-.5-.4-1.1-.5-1.7-.4-.6.1-1.1.5-1.5,1l-.5.8c-2.6-1.9-3.8-4.1-5.2-6.8-1-1.9-2.2-4.1-4-6.5-2.1-2.7-4.8-5.1-8.1-7.4l-2.2-1.5c-.1-.1-.3-.2-.4-.3l-11.2-7.6s0,0,0,0l-10.6-7c-3.9-2.6-9.2-1.6-11.9,2.3-1.1,1.6-1.6,3.4-1.5,5.2-3.4-.2-6.7,1.3-8.6,4.2-1.4,2.1-2,4.8-1.5,7.3-3,.2-5.7,1.7-7.4,4.2-1.9,2.8-2.2,6.1-.8,9.2-2.4.5-4.5,1.9-5.9,4-1.4,2.1-2,4.7-1.5,7.2s1.9,4.7,4.1,6.2l13.6,9.1c.5.4,1.2.5,1.8.4.6-.1,1.2-.5,1.5-1,.7-1.1.4-2.6-.6-3.3l-13.6-9.1c-2.2-1.5-2.8-4.6-1.3-6.8,1.5-2.1,4.3-2.8,6.5-1.5l.3.2h0c1,.3,2.1,0,2.7-1h0c.6-.9.5-2-.1-2.8h0c0-.1,0-.1,0-.1-.2-.1-.4-.2-.5-.3-2.4-1.7-4.2-4.8-2.2-7.6,1.5-2.2,4.6-2.8,6.8-1.3l.5.4h0c.1.1.2.2.4.3l.8.4h0c.9,0,1.8-.4,2.3-1.1.4-.5.5-1.1.4-1.8-.1-.6-.5-1.2-1-1.5l-.2-.2c-2.1-1.6-2.6-4.5-1.2-6.7.7-1.1,1.8-1.8,3.1-2.1,1.3-.2,2.6,0,3.7.8,0,0,.9.6,1.4.9.5.4,1.1.5,1.8.4.6-.1,1.2-.5,1.5-1,.7-1,.5-2.4-.5-3.2l-.2-.2c-1.4-1.3-1.7-3.4-.7-5,.6-.8,1.4-1.4,2.4-1.6,1-.2,2,0,2.8.6l10.6,7c0,0,.1,0,.2.1h.1c0,.1,2.9,2.1,13.5,9.3,6.6,4.5,8.8,8.6,10.6,12.2,1.6,3,3.1,5.9,6.7,8.5l-18.8,27.7c-5.1-2.6-10.1-2-16.9-1-4.1.6-8.8,1.2-14.6,1.3h-.1s0,0-.1,0c-2.1.2-4.2-.3-5.9-1.5-1.2-.8-2.2-2-2.9-3.3,0,0-.2-.3-.3-.7-1.3-2.9-1.8-4.1-2.2-4.4,0,0-.1-.1-.1-.1-.1-.1-.1-.1-.2-.2h0c-1.1-.8-2.6-.5-3.3.6-.3.5-.5,1.1-.4,1.8.1.7,2.2,4.9,2.2,4.9,1,2.1,2.6,3.9,4.6,5.3,2.6,1.8,5.8,2.6,9,2.3,6.1,0,10.9-.7,15.1-1.3,5.9-.8,9.9-1.4,13.6.3-.7,1.1-.4,2.5.6,3.2l12.9,8.7-.6.9c-.7,1.1-.4,2.5.6,3.2l21.5,14.5c.5.3,1,.5,1.6.4,0,0,0,0,.1,0,.6-.1,1.1-.5,1.5-1,.3-.5.5-1.1.4-1.7-.1-.6-.5-1.1-1-1.5l-19.5-13.2,27-39.9,19.5,13.2c.5.4,1.1.5,1.7.4.6-.1,1.1-.5,1.5-1s.5-1.1.4-1.7"/>
  <g class="cls-30">
    <path class="cls-16" d="M698.9,113.4l-10.5,8.1-24.1-31,10.5-8.1,24.1,31ZM726.6,99.2c-.8-1-2.3-1.2-3.3-.4l-18.6,14.5-29.6-38,18.6-14.5c.5-.4.8-.9.9-1.6,0-.6,0-1.2-.5-1.7-.4-.5-.9-.8-1.5-.9-.6,0-1.2,0-1.7.5l-20.4,15.9c-1,.8-1.2,2.2-.4,3.3l1.9,2.5-12.3,9.6c-.5.4-.8.9-.9,1.5,0,.6,0,1.2.5,1.7l.6.8c-2.6,1.9-5,2.3-8,2.8-2.1.4-4.6.8-7.4,1.8-3.2,1.2-6.3,3-9.6,5.5l-2.1,1.6c-.2,0-.3.2-.5.3l-10.7,8.3s0,0,0,0l-10,7.9c-1.8,1.4-2.9,3.4-3.2,5.7s.3,4.5,1.7,6.3c1.2,1.5,2.7,2.5,4.5,3-1.3,3.2-.8,6.7,1.3,9.5,1.6,2,3.9,3.3,6.5,3.6-.8,2.9-.2,6,1.7,8.4,2.1,2.7,5.1,4,8.5,3.6-.2,2.5.4,4.9,2,6.8,2.2,2.8,5.6,4.1,9,3.6,1.6-.2,3.2-.9,4.6-1.9l12.9-10.2c1-.8,1.2-2.3.4-3.3-.4-.5-.9-.8-1.6-.9s-1.2,0-1.7.5l-12.9,10.2c-1,.8-2.3,1.2-3.6,1-1.3-.2-2.5-.8-3.3-1.8-1.6-2-1.3-5,.6-6.7l.2-.2h0c.6-.9.6-2,0-2.9h0c-.7-.9-1.8-1.1-2.7-.8h0c0,0,0,0,0,0-.2.1-.3.3-.5.4-2.3,1.8-5.8,2.5-7.9-.2-1.7-2.1-1.3-5.2.8-6.9l.5-.4h0c.1-.1.2-.2.4-.3l.7-.6h0c.4-.9.3-1.9-.3-2.6-.8-1-2.3-1.2-3.3-.4l-.2.2c-2.1,1.5-5.1,1.1-6.7-1-1.7-2.1-1.3-5.2.9-6.9,0,0,.8-.7,1.3-1.1.5-.4.8-.9.9-1.6,0-.6,0-1.3-.5-1.7-.8-1-2.2-1.2-3.2-.5l-.3.2c-1.6,1-3.8.6-4.9-.9-.6-.8-.9-1.8-.8-2.8.1-1,.6-1.9,1.4-2.5l10-7.9c0,0,.1,0,.2-.1h.1c0-.1,2.7-2.2,13-10.1,6.4-4.9,10.9-5.7,14.9-6.4,3.4-.6,6.6-1.1,10.1-3.8l20.6,26.4c-4.1,4-5,9-6.2,15.8-.7,4.1-1.6,8.7-3.3,14.3h0c0,0,0,0,0,.1h0c0,0,0,0,0,.1-.4,2.1-1.6,3.9-3.2,5.2-1.2.9-2.6,1.5-4,1.8,0,0-.4,0-.7,0-3.2.3-4.4.5-4.9.7,0,0-.1,0-.2,0-.1,0-.2,0-.3.2h0c-1,.8-1.2,2.3-.4,3.3.4.5.9.8,1.6.9.6.1,5.2-.5,5.4-.5h0c2.3-.3,4.5-1.3,6.4-2.7,2.5-2,4.3-4.7,4.9-7.8,1.8-5.8,2.7-10.6,3.4-14.8,1-5.9,1.8-9.9,4.5-12.8.4.5.9.8,1.5.9.6,0,1.2,0,1.7-.5l12.3-9.6.6.8c.8,1,2.2,1.2,3.3.4l20.5-15.9c.5-.4.8-.9.9-1.5,0-.6,0-1.2-.5-1.7"/>
  </g>
  <g class="cls-44">
    <path class="cls-16" d="M581.9,52.2l-37,13.4-4.5-12.5,37-13.4,4.5,12.5ZM615.5,78.9c-1.1-3-3.2-5.5-5.9-7.1-5-3.5-9.2-5.8-13-7.8-5.3-2.8-8.8-4.7-10.8-8.2,1.2-.4,1.8-1.8,1.4-3l-5.3-14.7,1-.4c.6-.2,1.1-.6,1.3-1.2.3-.6.3-1.2,0-1.8l-8.8-24.4c-.2-.6-.6-1-1.2-1.3-.6-.3-1.2-.3-1.8,0-.6.2-1,.6-1.3,1.2-.3.6-.3,1.2,0,1.8l8,22.2-45.3,16.4-8-22.2c-.2-.6-.6-1.1-1.2-1.3-.6-.3-1.2-.3-1.8,0-.6.2-1,.6-1.3,1.2-.3.6-.3,1.2,0,1.8l8.8,24.4c.2.6.6,1,1.2,1.3s1.2.3,1.8,0l2.9-1.1,5.3,14.7c.2.6.6,1,1.2,1.3.6.3,1.2.3,1.8,0l.9-.3c1,3.1.7,5.5.2,8.5-.3,2.2-.7,4.6-.5,7.6.1,3.4.9,6.9,2.2,10.8l.9,2.5c0,.2,0,.4.1.5l4.6,12.8s0,0,0,0l4.5,12c1.6,4.4,6.5,6.7,10.9,5.1,1.8-.7,3.3-1.8,4.3-3.4,2.1,1.7,4.8,2.5,7.5,2.1.7,0,1.3-.3,2-.5,2.4-.9,4.4-2.7,5.5-5,2.5,1.6,5.6,2,8.5,1,3.2-1.2,5.4-3.7,6-7,2.3,1,4.8,1.1,7.1.2,2.4-.9,4.3-2.6,5.4-5,1.1-2.3,1.2-4.9.3-7.4l-5.7-15.4c-.2-.6-.7-1.1-1.2-1.3s-1.2-.3-1.8,0c-.6.2-1.1.7-1.3,1.2s-.3,1.2,0,1.8l5.7,15.4c.4,1.2.4,2.6-.2,3.7-.6,1.2-1.5,2.1-2.8,2.5-2.4.9-5.1-.3-6.2-2.7v-.3c-.1,0-.2,0-.2,0-.6-.8-1.7-1.2-2.7-.8h0c-1,.4-1.6,1.3-1.6,2.4h-.1s0,0,0,0c0,.2.2.4.2.6,1,2.8.6,6.3-2.7,7.5-2.5.9-5.3-.4-6.3-2.9l-.2-.6h0c0-.2,0-.3-.2-.5l-.4-.8h-.2c-.6-.6-1.6-.8-2.5-.5-1.2.4-1.9,1.8-1.4,3v.3c.9,2.5-.4,5.2-2.9,6.1-1.2.4-2.6.4-3.7-.2-1.2-.6-2.1-1.5-2.5-2.8,0,0-.4-1-.6-1.5-.4-1.2-1.8-1.9-3-1.4-1.2.4-1.8,1.7-1.5,2.9v.3c.5,1.9-.5,3.8-2.3,4.4-.9.3-2,.3-2.9-.1-.9-.4-1.6-1.2-2-2.1l-4.5-12c0,0,0-.1,0-.2v-.2c0,0-1.2-3.1-5.6-15.5-2.7-7.6-2-12.1-1.5-16.1.5-3.4,1-6.6-.4-10.8l31.5-11.4c2.6,5.1,7,7.5,13.1,10.8,3.7,2,7.8,4.2,12.6,7.6h0s0,0,0,0h0s0,0,0,0c1.8,1,3.2,2.7,3.9,4.7.5,1.4.7,2.9.4,4.3,0,0,0,.4-.2.7-.7,3.1-.9,4.4-.8,4.9,0,0,0,.1,0,.2,0,.2,0,.2,0,.3h0c.2.6.7,1.1,1.2,1.4.6.3,1.2.3,1.8,0,.6-.2,1-.6,1.3-1.2.3-.6,1.1-5.2,1.1-5.3.4-2.3.2-4.7-.6-6.9"/>
  </g>
  <path class="cls-16" d="M608.4,163.2c-4.8,11.2-24.5,15.2-29.9,16.1-3.2-4.3-14.3-20.9-8.9-32.6,0,0,0,0,0,0,1.1-2.5,3-4.4,5.5-5.4,1.2-.5,2.5-.7,3.8-.7s2.7.3,4,.8c3.4,1.5,5.7,4.6,6.1,8.3,0,.9.6,1.6,1.4,2,.8.3,1.7.2,2.4-.3,2.9-2.3,6.8-2.8,10.2-1.4,2.5,1.1,4.4,3,5.4,5.5,1,2.5,1,5.2,0,7.7ZM612.9,153.7c-1.5-3.7-4.3-6.6-7.9-8.1-3.9-1.7-8.2-1.6-12,.1-1.4-3.9-4.3-7.1-8.2-8.8-3.6-1.6-7.7-1.6-11.4-.1-3.7,1.5-6.6,4.3-8.1,7.9-1.8,3.8-2.3,8.3-1.5,13.3.6,3.9,1.9,8,4,12.4,3.5,7.3,7.7,12.7,7.9,12.9.4.6,1.1.9,1.9.9s.2,0,.3,0c.3,0,7.1-.9,14.7-3.6,4.6-1.6,8.5-3.5,11.6-5.7,4.1-2.8,7-6.2,8.6-9.8,1.6-3.6,1.6-7.7.1-11.4"/>
  <path class="cls-16" d="M601.6,154.2c-1-.4-2.3,0-2.7,1.1-.4,1,0,2.3,1.1,2.7.6.3.9,1,.6,1.6-.4,1,0,2.3,1.1,2.7.3.1.5.2.8.2.8,0,1.6-.5,1.9-1.3,1.2-2.7-.1-5.8-2.8-7"/>
  <g class="cls-2">
    <path class="cls-16" d="M916,433c23.7,0,48.7-8.1,48.7-23.2s-9.1-15.5-21.1-19.3v9.7c7.7,2.8,11.8,6.5,11.8,9.5,0,5.6-15.3,13.9-39.5,13.9s-39.4-8.4-39.4-13.9,5.8-7.9,16-10.9v-9.5c-14.4,3.5-25.3,10.4-25.3,20.4,0,15.1,25.1,23.2,48.7,23.2Z"/>
  </g>
  <path class="cls-16" d="M934.3,302.8c0-9.1-7.2-16.2-16.2-16.2s-16.2,7.2-16.2,16.2,7.2,16.2,16.2,16.2,16.2-7.2,16.2-16.2ZM918.1,309.7c-3.9,0-7-3-7-7s3-7,7-7,7,3,7,7-3,7-7,7Z"/>
  <path class="cls-16" d="M945.9,363.1v-30.4c0-3.5-1.4-7-3.9-9.5s-6.5-4.2-10.4-4.2h-26.9c-3.9,0-7.7,1.4-10.4,4.2-2.6,2.6-3.9,6-3.9,9.5v30.4c0,3.9,3,7,7,7h4.4v33.7c0,4.4,3.7,8.1,8.1,8.1h16.5c4.4,0,7.9-3.7,8.1-8.1v-33.7h4.6c3.7,0,7-3,7-7ZM936.6,360.8h-2.3v-18.6c0-2.6-2.1-4.6-4.6-4.6s-4.6,2.1-4.6,4.6v60.3h-2.3v-32.9c0-2.6-2.1-4.6-4.6-4.6s-4.6,2.1-4.6,4.6v32.9h-2.3v-60.3c0-2.6-2.1-4.6-4.6-4.6s-4.6,2.1-4.6,4.6v18.6h-2.3v-28.1c0-1.2.5-2.1,1.2-3,.9-.9,2.3-1.6,3.7-1.6h27.2c1.4,0,2.8.5,3.7,1.6.9.9,1.2,1.9,1.2,3l.2,28.1Z"/>
  <g class="cls-26">
    <path class="cls-16" d="M1015.5,467.5c23.7,0,48.7-8.1,48.7-23.2s-10-16.2-23.2-20v9.7c8.8,3,13.9,7,13.9,10.2,0,5.6-15.3,13.9-39.4,13.9s-39.5-8.4-39.5-13.9,5.1-7.4,13.9-10.2v-9.7c-13.2,3.7-23.2,10.4-23.2,20,0,15.1,25.1,23.2,48.7,23.2Z"/>
  </g>
  <path class="cls-16" d="M1031.8,337.6c0-9-7.2-16.2-16.2-16.2s-16.2,7.2-16.2,16.2,7.2,16.2,16.2,16.2,16.2-7.2,16.2-16.2ZM1015.5,344.5c-3.9,0-7-3-7-7s3-7,7-7,7,3,7,7-3,7-7,7Z"/>
  <path class="cls-16" d="M1043.4,397.9v-30.4c0-3.5-1.4-7-3.9-9.5s-6.5-4.2-10.4-4.2h-26.9c-3.9,0-7.7,1.4-10.4,4.2s-3.9,6-3.9,9.5v30.4c0,3.9,3,7,7,7h4.4v33.7c0,4.4,3.7,8.1,8.1,8.1h16.5c4.4,0,7.9-3.7,8.1-8.1v-33.7h4.6c3.7,0,7-3,7-7ZM1034.1,395.6h-2.3v-18.6c0-2.6-2.1-4.6-4.6-4.6s-4.6,2.1-4.6,4.6v60.3h-2.3v-33c0-2.6-2.1-4.6-4.6-4.6s-4.6,2.1-4.6,4.6v33h-2.3v-60.3c0-2.6-2.1-4.6-4.6-4.6s-4.6,2.1-4.6,4.6v18.6h-2.3v-28.1c0-1.2.5-2.1,1.2-3,.9-.9,2.3-1.6,3.7-1.6h27.2c1.4,0,2.8.5,3.7,1.6.9.9,1.2,1.9,1.2,3l.2,28.1Z"/>
  <g class="cls-8">
    <path class="cls-16" d="M1140.8,389.6v9.5c9.7,3,15.3,7.2,15.3,10.7,0,5.6-15.3,13.9-39.5,13.9s-39.4-8.4-39.4-13.9,4.6-7,12.5-9.7v-9.7c-12.5,3.7-21.8,10.4-21.8,19.5,0,15.1,25.1,23.2,48.7,23.2s48.7-8.1,48.7-23.2-10.7-16.7-24.6-20.2Z"/>
  </g>
  <path class="cls-16" d="M1131.6,302.8c0-9.1-7.2-16.2-16.2-16.2s-16.2,7.2-16.2,16.2,7.2,16.2,16.2,16.2,16.2-7.2,16.2-16.2ZM1115.3,309.7c-3.9,0-7-3-7-7s3-7,7-7,7,3,7,7-3,7-7,7Z"/>
  <path class="cls-16" d="M1091.4,323.2c-2.6,2.6-3.9,6-3.9,9.5v30.4c0,3.9,3,7,7,7h4.4v33.7c0,4.4,3.7,8.1,8.1,8.1h16.5c4.4,0,7.9-3.7,8.1-8.1v-33.7h4.6c3.9,0,7-3,7-7v-30.4c0-3.5-1.4-7-3.9-9.5-2.8-2.8-6.5-4.2-10.4-4.2h-26.9c-3.9,0-7.7,1.4-10.4,4.2ZM1128.8,328.3c1.4,0,2.8.5,3.7,1.6.9.9,1.2,1.9,1.2,3v28.1h-2.3v-18.6c0-2.6-2.1-4.6-4.6-4.6s-4.6,2.1-4.6,4.6v60.3h-2.3v-33.2c0-2.6-2.1-4.6-4.6-4.6s-4.6,2.1-4.6,4.6v32.9h-2.3v-60.3c0-2.6-2.1-4.6-4.6-4.6s-4.6,2.1-4.6,4.6v18.6h-2.3v-28.1c0-1.2.5-2.1,1.2-3,.9-.9,2.3-1.6,3.7-1.6h27.4v.2Z"/>
  <g class="cls-40">
    <path class="cls-16" d="M1015.5,170.5c-28.1,0-51.1,23-51.1,51.1s4.2,23,11.1,31.8c-1.2,0-2.3.5-3,1.4-1.9,1.9-1.9,4.9,0,6.5.9.9,2.1,1.4,3.2,1.4s2.3-.5,3.3-1.4c.7-.7,1.2-1.6,1.4-2.8,9.3,8.8,21.6,14.2,35.3,14.2,28.1,0,51.1-23,51.1-51.1s-23.2-51.1-51.3-51.1ZM1015.5,263.3c-23,0-41.8-18.8-41.8-41.8s18.8-41.8,41.8-41.8,41.8,18.8,41.8,41.8-18.8,41.8-41.8,41.8Z"/>
  </g>
  <path class="cls-16" d="M1015.5,189.1c-17.9,0-32.5,14.6-32.5,32.5s14.6,32.5,32.5,32.5,32.5-14.6,32.5-32.5-14.6-32.5-32.5-32.5ZM1015.5,244.8c-12.8,0-23.2-10.4-23.2-23.2s10.4-23.2,23.2-23.2,23.2,10.4,23.2,23.2-10.4,23.2-23.2,23.2Z"/>
  <path class="cls-16" d="M1015.5,205.3c-9.1,0-16.2,7.2-16.2,16.2s7.2,16.2,16.2,16.2,16.2-7.2,16.2-16.2-7.2-16.2-16.2-16.2ZM1015.5,228.5c-3.9,0-7-3-7-7s3-7,7-7,7,3,7,7-3,7-7,7Z"/>
  <path class="cls-16" d="M964.2,274c1.2,0,2.3-.5,3.3-1.4,1.9-1.9,1.9-4.6,0-6.5s-4.6-1.9-6.5,0-1.9,4.6,0,6.5,2.1,1.4,3.2,1.4Z"/>
  <path class="cls-16" d="M949.4,277.5c-1.9,1.9-1.9,4.6,0,6.5.9.9,2.1,1.4,3.3,1.4s2.3-.5,3.2-1.4c1.9-1.9,1.9-4.6,0-6.5-1.6-1.9-4.6-1.9-6.5,0Z"/>
  <path class="cls-16" d="M944.5,295.6c1.9-1.9,1.9-4.6,0-6.5-1.9-1.9-4.9-1.9-6.5,0-1.9,1.9-1.9,4.6,0,6.5s2.1,1.4,3.2,1.4,2.3-.5,3.2-1.4Z"/>
  <path class="cls-16" d="M1069.6,274c1.2,0,2.3-.5,3.2-1.4,1.9-1.9,1.9-4.6,0-6.5s-4.6-1.9-6.5,0c-1.9,1.9-1.9,4.6,0,6.5s2.1,1.4,3.2,1.4Z"/>
  <path class="cls-16" d="M1055,254.5c-1.9,1.9-1.9,4.9,0,6.5.9.9,2.1,1.4,3.2,1.4s2.3-.5,3.3-1.4c1.9-1.9,1.9-4.6,0-6.5-1.9-1.6-4.6-1.6-6.5,0Z"/>
  <path class="cls-16" d="M1077.9,277.5c-1.9,1.9-1.9,4.6,0,6.5.9.9,2.1,1.4,3.3,1.4s2.3-.5,3.2-1.4c1.9-1.9,1.9-4.6,0-6.5-1.9-1.9-4.6-1.9-6.5,0Z"/>
  <path class="cls-16" d="M1096.1,295.6c1.9-1.9,1.9-4.6,0-6.5-1.9-1.9-4.6-1.9-6.5,0-1.9,1.9-1.9,4.6,0,6.5s2.1,1.4,3.2,1.4,2.3-.5,3.3-1.4Z"/>
  <path class="cls-16" d="M1015.5,298.1c2.6,0,4.6-2.1,4.6-4.6s-2.1-4.6-4.6-4.6-4.6,2.1-4.6,4.6,2.1,4.6,4.6,4.6Z"/>
  <path class="cls-16" d="M1015.5,314.4c2.6,0,4.6-2.1,4.6-4.6s-2.1-4.6-4.6-4.6-4.6,2.1-4.6,4.6,2.1,4.6,4.6,4.6Z"/>
  <path class="cls-16" d="M1010.9,277.2c0,2.6,2.1,4.6,4.6,4.6s4.6-2.1,4.6-4.6-2.1-4.6-4.6-4.6-4.6,2.1-4.6,4.6Z"/>
  <g class="cls-11">
    <path class="cls-16" d="M1120.4,665c-.2,0-.4,0-.6,0-1,0-1.9.2-2.9.5-4.3,1.1-7.7,4.3-9.5,8.3-.7.1-1.5,0-2.2.2-6.8,1.8-11.1,8.1-10.8,14.9-.5,0-1,0-1.4,0-7.8,2.1-12.4,10.1-10.3,17.9.9,3.5,3.2,6.4,6.1,8.3-2.6,3.5-3.5,8-2.4,12.3,1.4,5.4,5.8,9.2,11,10.3-.2,1.7-.1,3.4.3,5.1,2.1,7.7,10.1,12.4,17.9,10.3h0c1.1-.3,2.1-.8,3.1-1.3v11.6c0,4.2,6.3,4.2,6.2,0v-11.5c3.1,1.5,6.6,1.9,10,1,7.1-1.9,11.6-8.9,10.6-16,.1,0,.3,0,.4,0,7.8-2.1,12.4-10.1,10.3-17.9-.5-1.8-1.4-3.4-2.5-4.9,3.8-3.4,5.6-8.4,4.6-13.5,0-.4,0-.7,0-1h0c-1.5-5.4-5.9-9.2-11.2-10.3,0-.7,0-1.3-.2-1.9h0c-1.5-5.7-6.3-9.6-12-10.5,0-.4,0-.8-.1-1.2h0c-1.8-6.6-7.8-10.9-14.3-10.8h0ZM969.9,665c-9.7,0-17.6,7.9-17.6,17.5s7.9,17.5,17.6,17.5,17.6-7.9,17.6-17.5-7.9-17.5-17.6-17.5ZM1120.6,671.1c.4,0,.8,0,1.2,0,3.2.4,6.1,2.8,7,6.2.2.7.3,1.5.3,2.3,0,1.8,1.5,3.2,3.3,3.1,4-.2,7.5,2.4,8.6,6.2.2.9.3,1.8.3,2.7-.1,1.8,1.3,3.3,3.1,3.3,3.8,0,7.1,2.6,8.1,6.2,1,3.9-.8,8-4.5,9.7-2.1,1-2.4,3.8-.5,5.2,1.5,1.1,2.5,2.7,3,4.5,1.2,4.5-1.4,9.1-5.9,10.3-.8.2-1.7.3-2.5.3-2.3,0-3.9,2.2-3,4.3.1.4.3.7.4,1.1,1.2,4.5-1.4,9.1-5.9,10.3-3.1.8-6.3-.2-8.4-2.5v-9.4l19.3-9.5c3-1.4,2-5.9-1.3-5.9s-1,0-1.4.3l-16.6,8.1v-14.6l19.3-9.5c3-1.4,2-5.9-1.3-5.9-.5,0-1,.1-1.4.3l-16.6,8.1v-20c0-1.7-1.4-3.2-3.2-3.1-1.7,0-3.1,1.4-3.1,3.1v20l-16.5-8.1c-.5-.2-1-.4-1.5-.3-3.3,0-4.2,4.5-1.2,5.9l19.3,9.4v14.6l-16.5-8.1c-.5-.2-1-.3-1.5-.3-3.2,0-4.2,4.5-1.2,5.9l19.3,9.4v8.8c-1.1,1.6-2.8,2.8-4.7,3.3-4.5,1.2-9.1-1.4-10.3-5.9-.4-1.7-.4-3.4.2-5.1.8-2.1-.8-4.3-3.1-4.2-4,.2-7.5-2.4-8.5-6.2-.9-3.4.4-7.1,3.4-9.1,2.2-1.5,1.6-4.9-1-5.6-3-.7-5.3-3-6.1-6-1.2-4.5,1.4-9.1,5.9-10.3,1-.3,2.1-.4,3.1-.2,2.2.2,4-1.9,3.3-4.1,0-.2,0-.3-.1-.4-1.2-4.5,1.4-9.1,5.9-10.3.8-.2,1.7-.3,2.6-.3,1.5,0,2.8-.9,3.1-2.3.8-2.9,3-5.2,6-6,.7-.2,1.4-.3,2.1-.3h0ZM969.9,671.2c6.3,0,11.4,5,11.4,11.3s-5.1,11.3-11.4,11.3-11.4-5-11.4-11.3,5.1-11.3,11.4-11.3ZM1049.3,678c-2.6,0-5.2.1-7.7.4-2.5.2-5,.7-7.5,1.1-2.5.5-4.9,1.1-7.2,1.9-2.4.7-4.7,1.6-7,2.6s-4.5,2-6.6,3.2c-2.1,1.2-4.2,2.4-6.2,3.8-2,1.4-4,2.8-5.8,4.4-1.9,1.5-3.7,3.2-5.4,4.9-2.9,2.9,1.5,7.3,4.4,4.4,1.6-1.6,3.2-3.1,4.9-4.5,1.7-1.4,3.5-2.7,5.3-4,1.8-1.2,3.8-2.4,5.7-3.5,2-1.1,4-2.1,6.1-2.9,2.1-.9,4.2-1.7,6.4-2.3,2.2-.7,4.4-1.2,6.6-1.7,2.3-.5,4.6-.8,6.9-1,2.3-.2,4.7-.4,7.1-.4s4.8.1,7.1.4c2.3.2,4.6.6,6.9,1,2.3.5,4.5,1,6.7,1.7,2.2.7,4.3,1.5,6.4,2.3,3.9,1.7,6.3-4.2,2.4-5.7-2.3-1-4.6-1.8-6.9-2.6-2.4-.7-4.8-1.4-7.3-1.9-2.5-.5-5-.9-7.5-1.1-2.5-.2-5.1-.4-7.7-.4ZM969.9,704c-24.5,0-44.5,19.1-44.5,42.8v3.1h89.1v-3.1c0-23.7-20-42.8-44.5-42.8ZM969.9,710.2c20.2,0,36.3,14.8,38,33.5h-76c1.7-18.7,17.8-33.5,38-33.5ZM977.1,757.8c-1.8,0-3.2,1.6-3,3.5.3,2.5.7,5,1.1,7.5.5,2.5,1.1,4.9,1.9,7.2.7,2.4,1.6,4.7,2.6,6.9,1,2.3,2,4.5,3.2,6.6,1.2,2.1,2.4,4.2,3.8,6.2,1.4,2,2.8,3.9,4.4,5.8,1.5,1.9,3.2,3.7,4.9,5.4s3.5,3.3,5.4,4.9c3.2,2.7,7.2-2.1,4-4.8-1.7-1.4-3.4-2.9-4.9-4.5-1.6-1.6-3.1-3.2-4.5-4.9-1.4-1.7-2.7-3.5-4-5.3-1.2-1.8-2.4-3.8-3.5-5.7-1.1-2-2.1-4-2.9-6.1-.9-2.1-1.7-4.2-2.3-6.4-.7-2.2-1.2-4.4-1.7-6.7-.5-2.3-.8-4.5-1-6.9-.1-1.6-1.5-2.9-3.1-2.8ZM1118.5,772c-1.4,0-2.6.9-2.9,2.2-.7,2.2-1.5,4.3-2.3,6.4-.9,2.1-1.9,4.1-2.9,6.1-1.1,2-2.2,3.9-3.5,5.7-1.3,1.9-2.6,3.6-4,5.3-1.4,1.7-2.9,3.4-4.5,4.9-1.6,1.6-3.2,3.1-4.9,4.5-3.3,2.6.7,7.5,3.9,4.8,1.9-1.5,3.7-3.2,5.4-4.9s3.3-3.5,4.9-5.4c1.5-1.9,3-3.8,4.4-5.8,1.4-2,2.6-4.1,3.8-6.2,1.2-2.1,2.2-4.3,3.2-6.6,1-2.3,1.8-4.6,2.6-6.9.7-2-.9-4.1-3-4.1ZM1033.5,790.5c-11.9,0-21.4,10.2-21.4,22.4s9.3,24.9,18.2,32.2c8.9,7.3,17.7,11.3,17.7,11.3.8.4,1.7.4,2.5,0,0,0,8.9-4,17.7-11.3,8.9-7.3,18.2-18.2,18.2-32.2s-9.6-22.4-21.4-22.4-11.7,2.8-15.7,7.4c-4-4.6-9.6-7.4-15.7-7.4ZM1033.5,796.7c5.3,0,10.2,2.9,13,7.9,1.2,2.1,4.2,2.1,5.4,0,2.8-4.9,7.7-7.9,13-7.9,8.4,0,15.2,7.1,15.2,16.2s-7.7,20.7-15.9,27.5c-7.1,5.9-13.4,8.9-15.1,9.7-1.7-.8-7.9-3.9-15.1-9.7-8.2-6.7-15.9-16.2-15.9-27.5s6.9-16.2,15.2-16.2ZM944.3,842.1c-.5,0-1,.2-1.4.4l-35.2,20.3c-2.9-4.6-8-7.1-13.1-6.6-1.7.2-3.4.7-5,1.6l-22,12.7c-6.4,3.7-8.2,12.1-4.4,18.7l34.7,60.2c3.8,6.6,12,9.2,18.4,5.5l22-12.7c6.2-3.6,8.1-11.7,4.7-18.2l10.1-5.8,91.1,24.5c.2,0,.4,0,.6,0,5,1.5,10.5,1.1,15.4-1.7l78.8-45.6c9.2-5.4,12.4-17.3,7.1-26.5-2.7-4.6-7-7.8-11.8-9.1-1.2-.3-2.4-.5-3.7-.6-2-.1-4,0-6,.5-2.4-2.3-5.3-4-8.5-4.8-1.2-.3-2.4-.5-3.7-.6-3.7-.3-7.6.5-11,2.6l-55.2,31.9c2.4-10.2-3.7-20.5-13.8-23.3l-87.3-23.4c-.3-.1-.6-.1-.9-.1ZM944.9,848.6l86.1,23.1c7.1,1.9,11.2,9.1,9.3,16.2s-9,11.2-16.1,9.3l-45.1-12.1h-.2c-4.1-1.3-5.7,4.9-1.6,5.9l45.4,12.2s0,0,0,0l6.7,1.8,18.2,4.9c0,0,.2,0,.3,0,.2,0,.4,0,.6,0,.5,0,1-.2,1.4-.4l73-42.3c.2,0,.4-.2.5-.3.1,0,.2-.1.3-.2,0,0,.1,0,.2,0,.3-.2.7-.3,1-.4,0,0,0,0,0,0,2.6-1,5.4-1.1,7.9-.4,3.2.9,6.1,3,8,6.2,3.7,6.4,1.6,14.4-4.8,18l-78.8,45.6c-3.5,2-7.5,2.3-11,1-3.4-.9-3.2-.9-3.2-.9l-89-23.9c-.4-.1-.7-.2-1.1-.2h-.2c-.8,0-1.5.3-2.1.8l-10.6,6.1-29.1-50.4,34-19.7ZM1111.5,860.6c1.1,0,2.1.2,3.1.5,1.3.3,2.5.9,3.7,1.6l-70.5,40.8-9.7-2.6,66.6-38.5c1.6-.9,3.3-1.5,5-1.7.7,0,1.3,0,1.9,0ZM895.9,862.4c2.6,0,5.2,1.4,6.8,4.1l1.3,2.3s0,0,0,0l33.4,58c2.2,3.9,1.1,8.3-2.2,10.2l-22,12.7c-3.3,1.9-7.6.6-9.9-3.2l-34.7-60.2c-2.2-3.9-1.1-8.3,2.2-10.2l8.2-4.8c5.6,9.7,11.2,19.4,16.8,29.1,2.1,3.7,7.5.5,5.4-3.1-5.6-9.7-11.2-19.4-16.8-29.2l8.4-4.9c.8-.5,1.7-.8,2.6-.8.2,0,.3,0,.5,0h0ZM903.2,904.2c-4.2-.1-4.2,6.3,0,6.2,4.2.1,4.2-6.3,0-6.2Z"/>
  </g>
  <g class="cls-3">
    <path class="cls-16" d="M640.3,614.2v36.3l-33.9,17.4,4.7,2.4,28.7,14.8v28.6h-28.7v-13.7l-33.5-17.2-34.6,17.8v13.2h-28.7v-28l28.7-14.8,5.7-3-34.5-17.7v-29.7l63.3,32.6h0l40.4-20.8-75-38.5-28.7-14.8v-19.8h28.7v4.9l97.4,50Z"/>
  </g>
  <g class="cls-41">
    <path class="cls-17" d="M585.9,446.2v77.4c0,3.2-2.6,5.8-5.8,5.8h-6.3c-3.2,0-5.8-2.6-5.8-5.8v-77.4c0-3.2,2.6-5.8,5.8-5.8h6.3c3.2,0,5.8,2.6,5.8,5.8Z"/>
  </g>
  <g class="cls-39">
    <path class="cls-17" d="M570.2,405.7l-17.7,30.6c-3,5.2.8,11.8,6.8,11.8h35.4c6,0,9.8-6.5,6.8-11.8l-17.7-30.6c-3-5.2-10.6-5.2-13.6,0Z"/>
  </g>
  <path class="cls-17" d="M81.1,525.1c-.5,3.2-1.7,5.7-3.6,7.5-1.9,1.8-4.3,2.7-7.3,2.6-1.6,0-3-.5-4.2-1.3-1.2-.8-2.1-2-2.7-3.5-.6-1.5-1-3.3-1-5.1,0-1,0-2,.2-2.9l.8-5.4c.7-4.2,2-7.4,4.2-9.7,2.1-2.3,4.8-3.5,7.9-3.4,2.6,0,4.6,1,6,2.7,1.4,1.8,2,4.3,1.9,7.5h-3.8c0-1.8,0-3.1-.3-4-.3-.9-.7-1.6-1.4-2.1-.6-.5-1.5-.8-2.6-.8-2.1,0-3.8.7-5.2,2.4-1.4,1.7-2.3,4.2-2.8,7.5l-.8,5.4c-.2,1.5-.3,2.8-.2,4,.1,1.8.5,3.2,1.3,4.1.8.9,1.8,1.4,3.1,1.4,1.8,0,3.3-.4,4.4-1.4,1.1-1,2-2.8,2.5-5.4h3.7Z"/>
  <path class="cls-17" d="M96.9,515.6c-.6-.1-1.2-.2-1.6-.2-1.8,0-3.3,1.1-4.5,3.2l-2.8,16.3h-3.6l3.9-22.7h3.5s-.5,2.3-.5,2.3c1.3-1.9,2.8-2.8,4.5-2.8.3,0,.8.1,1.5.3l-.4,3.6Z"/>
  <path class="cls-17" d="M105.7,535.3c-2.5,0-4.5-1-5.7-2.7-1.3-1.8-1.7-4.3-1.4-7.4l.3-2.3c.4-3.5,1.5-6.3,3.2-8.3,1.7-2,3.9-3,6.5-2.9,2.2,0,3.8.8,4.9,2.2,1.1,1.4,1.6,3.4,1.6,6l-.2,2.5-.3,2.1h-12.2c-.2,1.3-.3,2.2-.3,3,0,1.4.4,2.5,1,3.4.7.8,1.6,1.2,2.9,1.2.9,0,1.8-.2,2.6-.5.9-.4,1.8-1.1,2.8-2l1.7,2.4c-.9,1.2-2,2-3.3,2.6-1.3.5-2.7.8-4.1.8ZM108.4,514.8c-2.5-.1-4.2,1.4-5.2,4.5l-.6,2h8.7s0-.5,0-.5c0-.7.1-1.3.1-2,0-2.5-1.1-3.9-3.2-4Z"/>
  <path class="cls-17" d="M128.6,534.8c0-.4-.1-.8-.1-1.2v-1.2c-1.5,2-3.3,2.9-5.1,2.9s-3.2-.6-4.3-1.8c-1-1.2-1.5-2.8-1.4-4.7.2-2.3,1.1-4.2,2.9-5.6,1.8-1.4,4.1-2.1,7.1-2.1h2.5l.3-2.4c.2-2.5-.7-3.8-2.8-3.8s-2,.3-2.8,1c-.7.7-1.2,1.5-1.4,2.5h-3.6c.2-1.9,1.1-3.5,2.6-4.8,1.6-1.3,3.4-1.9,5.5-1.9,2,0,3.6.7,4.7,1.9,1.1,1.2,1.5,2.9,1.3,5.1l-1.8,11.2c-.1.8-.2,1.6-.2,2.3v2.3c.1,0,0,.3,0,.3h-3.6ZM124.1,531.9c1.8,0,3.4-.9,4.7-2.7l1-5.4h-1.7c-1.4,0-2.7.2-3.8.8-1.1.5-1.9,1.3-2.3,2.2-.4.9-.6,1.9-.5,3,.2,1.4,1.1,2.1,2.6,2.1Z"/>
  <path class="cls-17" d="M146.8,506.6l-1,5.5h3.3l-.5,3h-3.3l-2.4,14.1v.8c0,1.2.3,1.8,1.2,1.8s.8,0,1.5-.2l-.3,3.2c-.8.3-1.6.4-2.4.4-1.3,0-2.2-.5-2.9-1.6-.6-1.1-.9-2.5-.7-4.5l2.3-14.1h-3.4l.5-3h3.4l1-5.5h3.6Z"/>
  <path class="cls-17" d="M153.7,534.8h-3.6l3.9-22.7h3.6l-3.9,22.7ZM154.8,506.1c0-.6.2-1.1.6-1.6.4-.5.9-.7,1.5-.7.6,0,1.1.2,1.5.6.4.4.6,1,.5,1.6,0,.6-.2,1.1-.6,1.6-.4.4-.9.7-1.5.7-.6,0-1.1-.2-1.5-.6-.4-.4-.5-1-.5-1.6Z"/>
  <path class="cls-17" d="M166.8,529.1l6.8-17h3.8l-10.1,22.7h-2.7l-3.1-22.7h3.6l1.6,17Z"/>
  <path class="cls-17" d="M181.5,534.8h-3.6l3.9-22.7h3.6l-3.9,22.7ZM182.7,506.1c0-.6.2-1.1.6-1.6.4-.5.9-.7,1.5-.7.6,0,1.1.2,1.5.6.4.4.6,1,.5,1.6,0,.6-.2,1.1-.6,1.6-.4.4-.9.7-1.5.7-.6,0-1.1-.2-1.5-.6-.4-.4-.5-1-.5-1.6Z"/>
  <path class="cls-17" d="M197.6,511.7c2.1,0,3.7.9,4.7,2.7l2.2-11.8h3.6l-5.6,32.3h-3.3l.4-2.4c-1.5,2-3.3,2.9-5.4,2.9-1.9,0-3.4-.8-4.4-2.2-1-1.4-1.5-3.5-1.5-6.2s.2-2.9.5-4.9c.3-2.1.8-3.8,1.5-5.2,1.6-3.4,4-5.1,7.3-5ZM191.9,527.7c0,2.8,1.2,4.2,3.5,4.3.8,0,1.5-.2,2.3-.6.7-.4,1.5-1.2,2.2-2.2l2-11.5c-.7-1.7-1.9-2.7-3.5-2.7-3.3-.2-5.3,2.3-6,7.3-.3,2.5-.5,4.3-.4,5.5Z"/>
  <path class="cls-17" d="M219.9,534.8c0-.4-.1-.8-.1-1.2v-1.2c-1.5,2-3.3,2.9-5.1,2.9s-3.2-.6-4.3-1.8c-1-1.2-1.5-2.8-1.4-4.7.2-2.3,1.1-4.2,2.9-5.6,1.8-1.4,4.1-2.1,7.1-2.1h2.5l.3-2.4c.2-2.5-.7-3.8-2.8-3.8s-2,.3-2.8,1c-.7.7-1.2,1.5-1.4,2.5h-3.6c.2-1.9,1.1-3.5,2.6-4.8,1.6-1.3,3.4-1.9,5.5-1.9,2,0,3.6.7,4.7,1.9,1.1,1.2,1.5,2.9,1.3,5.1l-1.8,11.2c-.1.8-.2,1.6-.2,2.3v2.3c.1,0,0,.3,0,.3h-3.6ZM215.4,531.9c1.8,0,3.4-.9,4.7-2.7l1-5.4h-1.7c-1.4,0-2.7.2-3.8.8-1.1.5-1.9,1.3-2.3,2.2-.4.9-.6,1.9-.5,3,.2,1.4,1.1,2.1,2.6,2.1Z"/>
  <path class="cls-17" d="M238.8,511.7c2.1,0,3.7.9,4.7,2.7l2.2-11.8h3.6l-5.6,32.3h-3.3l.4-2.4c-1.5,2-3.3,2.9-5.4,2.9-1.9,0-3.4-.8-4.4-2.2-1-1.4-1.5-3.5-1.5-6.2s.2-2.9.5-4.9c.3-2.1.8-3.8,1.5-5.2,1.6-3.4,4-5.1,7.3-5ZM233.1,527.7c0,2.8,1.2,4.2,3.5,4.3.8,0,1.5-.2,2.3-.6.7-.4,1.5-1.2,2.2-2.2l2-11.5c-.7-1.7-1.9-2.7-3.5-2.7-3.3-.2-5.3,2.3-6,7.3-.3,2.5-.5,4.3-.4,5.5Z"/>
  <path class="cls-17" d="M69,1001.5c-.5,3.2-1.7,5.7-3.6,7.5-1.9,1.8-4.3,2.7-7.3,2.6-1.6,0-3-.5-4.2-1.3-1.2-.8-2.1-2-2.7-3.5-.6-1.5-1-3.3-1-5.1,0-1,0-2,.2-2.9l.8-5.4c.7-4.2,2-7.4,4.2-9.7,2.1-2.3,4.8-3.5,7.9-3.4,2.6,0,4.6,1,6,2.7,1.4,1.8,2,4.3,1.9,7.5h-3.8c0-1.8,0-3.1-.3-4-.3-.9-.7-1.6-1.4-2.1-.6-.5-1.5-.8-2.6-.8-2.1,0-3.8.7-5.2,2.4-1.4,1.7-2.3,4.2-2.8,7.5l-.8,5.4c-.2,1.5-.3,2.8-.2,4,.1,1.8.5,3.2,1.3,4.1.8.9,1.8,1.4,3.1,1.4,1.8,0,3.3-.4,4.4-1.4,1.1-1,2-2.8,2.5-5.4h3.7Z"/>
  <path class="cls-17" d="M73.6,998.8c.5-3.3,1.6-5.9,3.4-7.9,1.8-2,4-3,6.7-2.9,1.7,0,3.1.5,4.2,1.5,1.1.9,1.9,2.2,2.4,3.8.5,1.6.6,3.5.4,5.4l-.2,2.1c-.5,3.2-1.6,5.9-3.4,7.8-1.8,2-4,2.9-6.7,2.9-1.7,0-3.1-.5-4.2-1.5-1.1-.9-1.9-2.2-2.4-3.8-.5-1.6-.6-3.4-.4-5.4l.2-2.1ZM76.9,1002.4c0,1.9.2,3.3.9,4.4.6,1,1.6,1.6,2.8,1.6,1.6,0,3-.5,4-1.7,1.1-1.2,1.8-3.1,2.1-5.5l.3-2.5v-1.5c.2-1.9-.1-3.4-.8-4.4-.6-1-1.6-1.6-2.8-1.6-1.6,0-3,.6-4.1,2.1-1.1,1.4-1.8,3.4-2.1,6l-.3,2.1v1.1Z"/>
  <path class="cls-17" d="M100.7,988.4l-.4,2.1c1.6-1.7,3.5-2.6,5.6-2.5,1.1,0,2.1.3,2.9.9.8.5,1.4,1.4,1.8,2.4,1.8-2.2,3.9-3.3,6.2-3.3,1.5,0,2.7.5,3.6,1.4.9.9,1.4,2.2,1.5,3.8,0,1,0,2,0,2.9l-2.5,15h-3.6l2.5-15v-1.8c0-1-.3-1.8-.8-2.3-.5-.6-1.2-.8-2.1-.8-1.1,0-2.1.4-3,1.3-.9.9-1.4,2-1.6,3.3h0c0,0-2.6,15.2-2.6,15.2h-3.6l2.5-15c0-.6,0-1.1,0-1.7-.1-2.1-1.1-3.1-2.9-3.2-1.7,0-3.2.9-4.3,2.8l-3,17.1h-3.6l4-22.7h3.4Z"/>
  <path class="cls-17" d="M134,1011.6c-2.2,0-3.8-.9-4.9-2.6l-2.1,10.9h-3.6l5.5-31.5h3.3s-.4,2.5-.4,2.5c1.5-2,3.4-3,5.5-3,2,0,3.5.8,4.5,2.3,1,1.5,1.5,3.5,1.4,6.1,0,1.2-.2,2.8-.5,4.8-.3,2-.7,3.6-1.2,4.9-1.5,3.8-4,5.6-7.5,5.5ZM139.5,995.5c-.2-2.8-1.4-4.2-3.6-4.2-1.7,0-3.1.8-4.4,2.7l-2.1,11.9c.7,1.7,1.8,2.5,3.5,2.6,1.6,0,3-.5,4-1.8,1.1-1.2,1.7-3.2,2.1-5.8.3-2.6.5-4.4.4-5.4Z"/>
  <path class="cls-17" d="M158.3,991.9c-.6-.1-1.2-.2-1.6-.2-1.8,0-3.3,1.1-4.5,3.2l-2.8,16.3h-3.6l3.9-22.7h3.5s-.5,2.3-.5,2.3c1.3-1.9,2.8-2.8,4.5-2.8.3,0,.8.1,1.5.3l-.4,3.6Z"/>
  <path class="cls-17" d="M160.1,998.8c.5-3.3,1.6-5.9,3.4-7.9,1.8-2,4-3,6.7-2.9,1.7,0,3.1.5,4.2,1.5,1.1.9,1.9,2.2,2.4,3.8.5,1.6.6,3.5.4,5.4l-.2,2.1c-.5,3.2-1.6,5.9-3.4,7.8-1.8,2-4,2.9-6.7,2.9-1.7,0-3.1-.5-4.2-1.5-1.1-.9-1.9-2.2-2.4-3.8-.5-1.6-.6-3.4-.4-5.4l.2-2.1ZM163.4,1002.4c0,1.9.2,3.3.9,4.4.6,1,1.6,1.6,2.8,1.6,1.6,0,3-.5,4-1.7,1.1-1.2,1.8-3.1,2.1-5.5l.3-2.5v-1.5c.2-1.9-.1-3.4-.8-4.4-.6-1-1.6-1.6-2.8-1.6-1.6,0-3,.6-4.1,2.1-1.1,1.4-1.8,3.4-2.1,6l-.3,2.1v1.1Z"/>
  <path class="cls-17" d="M187.1,988.4l-.4,2.1c1.6-1.7,3.5-2.6,5.6-2.5,1.1,0,2.1.3,2.9.9.8.5,1.4,1.4,1.8,2.4,1.8-2.2,3.9-3.3,6.2-3.3,1.5,0,2.7.5,3.6,1.4.9.9,1.4,2.2,1.5,3.8,0,1,0,2,0,2.9l-2.5,15h-3.6l2.5-15v-1.8c0-1-.3-1.8-.8-2.3-.5-.6-1.2-.8-2.1-.8-1.1,0-2.1.4-3,1.3-.9.9-1.4,2-1.6,3.3h0c0,0-2.6,15.2-2.6,15.2h-3.6l2.5-15c0-.6,0-1.1,0-1.7-.1-2.1-1.1-3.1-2.9-3.2-1.7,0-3.2.9-4.3,2.8l-3,17.1h-3.6l4-22.7h3.4Z"/>
  <path class="cls-17" d="M215.4,1011.2h-3.6l3.9-22.7h3.6l-3.9,22.7ZM216.5,982.4c0-.6.2-1.1.6-1.6.4-.5.9-.7,1.5-.7.6,0,1.1.2,1.5.6.4.4.6,1,.5,1.6,0,.6-.2,1.1-.6,1.6-.4.4-.9.7-1.5.7-.6,0-1.1-.2-1.5-.6-.4-.4-.5-1-.5-1.6Z"/>
  <path class="cls-17" d="M233,1005.2c.2-1.3-.5-2.4-2.2-3.3l-2.8-1.5c-1.4-.8-2.5-1.7-3.1-2.6-.6-.9-.8-2-.8-3.2.1-1.9.9-3.5,2.3-4.7,1.5-1.3,3.2-1.9,5.4-1.9,2,0,3.6.7,4.7,2,1.2,1.3,1.7,2.9,1.6,4.9h-3.6c0-1.1-.2-2-.8-2.7-.5-.7-1.3-1-2.2-1-1.1,0-2,.3-2.7.9-.7.6-1.1,1.4-1.2,2.4-.2,1.1.4,2.1,1.6,2.8l3.6,1.8c2.6,1.5,3.9,3.4,3.7,5.8-.1,2.1-1,3.7-2.5,4.9-1.5,1.2-3.3,1.8-5.5,1.8-2.1,0-3.8-.7-5.1-2.1-1.3-1.3-1.9-3.1-1.8-5.2h3.6c0,1.3.3,2.3.9,3,.6.7,1.4,1,2.5,1s2.1-.3,2.9-.9c.8-.6,1.2-1.4,1.3-2.3Z"/>
  <path class="cls-17" d="M241.9,998.8c.5-3.3,1.6-5.9,3.4-7.9,1.8-2,4-3,6.7-2.9,1.7,0,3.1.5,4.2,1.5,1.1.9,1.9,2.2,2.4,3.8.5,1.6.6,3.5.4,5.4l-.2,2.1c-.5,3.2-1.6,5.9-3.4,7.8-1.8,2-4,2.9-6.7,2.9-1.7,0-3.1-.5-4.2-1.5-1.1-.9-1.9-2.2-2.4-3.8-.5-1.6-.6-3.4-.4-5.4l.2-2.1ZM245.2,1002.4c0,1.9.2,3.3.9,4.4.6,1,1.6,1.6,2.8,1.6,1.6,0,3-.5,4-1.7,1.1-1.2,1.8-3.1,2.1-5.5l.3-2.5v-1.5c.2-1.9-.1-3.4-.8-4.4-.6-1-1.6-1.6-2.8-1.6-1.6,0-3,.6-4.1,2.1-1.1,1.4-1.8,3.4-2.1,6l-.3,2.1v1.1Z"/>
  <path class="cls-17" d="M513.2,1243.5h-10.5l-1.9,10.8h12.2l-.6,3.3h-16l5.3-30.6h15.8l-.6,3.3h-12l-1.7,9.8h10.5l-.6,3.3Z"/>
  <path class="cls-17" d="M525.6,1243.1l5.1-8.2h4.4l-7.9,11.4,4.3,11.3h-4l-2.5-8.5-5.2,8.5h-4.4l8.1-11.7-4.2-11h4l2.4,8.2Z"/>
  <path class="cls-17" d="M543.6,1254.9c1.2,0,2.2-.3,3-1.1.8-.8,1.4-1.9,1.7-3.3h3.4c-.3,2.2-1.3,4-2.8,5.5s-3.4,2.1-5.5,2.1c-2,0-3.6-.6-4.8-1.8-1.2-1.2-1.9-2.8-2.1-4.9-.1-1.3-.1-2.5,0-3.8l.3-2.3c.5-3.5,1.5-6.2,3.2-8.1,1.7-1.9,3.9-2.8,6.7-2.7,2.1,0,3.7.8,4.9,2.3,1.2,1.5,1.7,3.5,1.6,6h-3.4c0-3.3-1-5-3.2-5.1-3.3-.1-5.3,2.2-6,7-.4,3-.6,5-.5,6.1.1,2.7,1.3,4.1,3.6,4.1Z"/>
  <path class="cls-17" d="M563.4,1258.1c-2.5,0-4.5-1-5.7-2.7-1.3-1.8-1.7-4.3-1.4-7.4l.3-2.3c.4-3.5,1.5-6.3,3.2-8.3,1.7-2,3.9-3,6.5-2.9,2.2,0,3.8.8,4.9,2.2,1.1,1.4,1.6,3.4,1.6,6l-.2,2.5-.3,2.1h-12.2c-.2,1.3-.3,2.2-.3,3,0,1.4.4,2.5,1,3.4.7.8,1.6,1.2,2.9,1.2.9,0,1.8-.2,2.6-.5.9-.4,1.8-1.1,2.8-2l1.7,2.4c-.9,1.2-2,2-3.3,2.6-1.3.5-2.7.8-4.1.8ZM566.1,1237.7c-2.5-.1-4.2,1.4-5.2,4.5l-.6,2h8.7s0-.5,0-.5c0-.7.1-1.3.1-2,0-2.5-1.1-3.9-3.2-4Z"/>
  <path class="cls-17" d="M578.6,1257.6h-3.6l5.6-32.3h3.6l-5.6,32.3Z"/>
  <path class="cls-17" d="M592.9,1258.1c-2.5,0-4.5-1-5.7-2.7-1.3-1.8-1.7-4.3-1.4-7.4l.3-2.3c.4-3.5,1.5-6.3,3.2-8.3,1.7-2,3.9-3,6.5-2.9,2.2,0,3.8.8,4.9,2.2,1.1,1.4,1.6,3.4,1.6,6l-.2,2.5-.3,2.1h-12.2c-.2,1.3-.3,2.2-.3,3,0,1.4.4,2.5,1,3.4.7.8,1.6,1.2,2.9,1.2.9,0,1.8-.2,2.6-.5.9-.4,1.8-1.1,2.8-2l1.7,2.4c-.9,1.2-2,2-3.3,2.6-1.3.5-2.7.8-4.1.8ZM595.6,1237.7c-2.5-.1-4.2,1.4-5.2,4.5l-.6,2h8.7s0-.5,0-.5c0-.7.1-1.3.1-2,0-2.5-1.1-3.9-3.2-4Z"/>
  <path class="cls-17" d="M611.5,1234.9l-.5,2.5c1.7-1.9,3.5-2.9,5.6-2.9,1.4,0,2.6.5,3.4,1.5.8,1,1.3,2.3,1.4,4,0,1,0,1.9,0,2.8l-2.5,14.9h-3.6l2.5-15v-1.7c0-2.1-.8-3.2-2.5-3.3-1.4,0-2.8.8-4,2.5l-.6.9-2.9,16.5h-3.6l3.9-22.7h3.4Z"/>
  <path class="cls-17" d="M632.8,1254.9c1.2,0,2.2-.3,3-1.1.8-.8,1.4-1.9,1.7-3.3h3.4c-.3,2.2-1.3,4-2.8,5.5s-3.4,2.1-5.5,2.1c-2,0-3.6-.6-4.8-1.8-1.2-1.2-1.9-2.8-2.1-4.9-.1-1.3-.1-2.5,0-3.8l.3-2.3c.5-3.5,1.5-6.2,3.2-8.1,1.7-1.9,3.9-2.8,6.7-2.7,2.1,0,3.7.8,4.9,2.3,1.2,1.5,1.7,3.5,1.6,6h-3.4c0-3.3-1-5-3.2-5.1-3.3-.1-5.3,2.2-6,7-.4,3-.6,5-.5,6.1.1,2.7,1.3,4.1,3.6,4.1Z"/>
  <path class="cls-17" d="M648,1257.6h-3.6l3.9-22.7h3.6l-3.9,22.7ZM649.2,1228.9c0-.6.2-1.1.6-1.6.4-.5.9-.7,1.5-.7.6,0,1.1.2,1.5.6.4.4.6,1,.5,1.6,0,.6-.2,1.1-.6,1.6-.4.4-.9.7-1.5.7-.6,0-1.1-.2-1.5-.6-.4-.4-.5-1-.5-1.6Z"/>
  <path class="cls-17" d="M665.5,1257.6c0-.4-.1-.8-.1-1.2v-1.2c-1.5,2-3.3,2.9-5.1,2.9s-3.2-.6-4.3-1.8c-1-1.2-1.5-2.8-1.4-4.7.2-2.3,1.1-4.2,2.9-5.6,1.8-1.4,4.1-2.1,7.1-2.1h2.5l.3-2.4c.2-2.5-.7-3.8-2.8-3.8s-2,.3-2.8,1c-.7.7-1.2,1.5-1.4,2.5h-3.6c.2-1.9,1.1-3.5,2.6-4.8,1.6-1.3,3.4-1.9,5.5-1.9,2,0,3.6.7,4.7,1.9,1.1,1.2,1.5,2.9,1.3,5.1l-1.8,11.2c-.1.8-.2,1.6-.2,2.3v2.3c.1,0,0,.3,0,.3h-3.6ZM661,1254.7c1.8,0,3.4-.9,4.7-2.7l1-5.4h-1.7c-1.4,0-2.7.2-3.8.8-1.1.5-1.9,1.3-2.3,2.2-.4.9-.6,1.9-.5,3,.2,1.4,1.1,2.1,2.6,2.1Z"/>
  <path class="cls-17" d="M456.3,340h-7.8l-4.7,27.3h-3.8l4.7-27.3h-7.8l.6-3.3h19.3l-.6,3.3Z"/>
  <path class="cls-17" d="M468.3,348.1c-.6-.1-1.2-.2-1.6-.2-1.8,0-3.3,1.1-4.5,3.2l-2.8,16.3h-3.6l3.9-22.7h3.5s-.5,2.3-.5,2.3c1.3-1.9,2.8-2.8,4.5-2.8.3,0,.8.1,1.5.3l-.4,3.6Z"/>
  <path class="cls-17" d="M480.2,367.3c0-.4-.1-.8-.1-1.2v-1.2c-1.5,2-3.3,2.9-5.1,2.9s-3.2-.6-4.3-1.8c-1-1.2-1.5-2.8-1.4-4.7.2-2.3,1.1-4.2,2.9-5.6,1.8-1.4,4.1-2.1,7.1-2.1h2.5l.3-2.4c.2-2.5-.7-3.8-2.8-3.8s-2,.3-2.8,1c-.7.7-1.2,1.5-1.4,2.5h-3.6c.2-1.9,1.1-3.5,2.6-4.8,1.6-1.3,3.4-1.9,5.5-1.9,2,0,3.6.7,4.7,1.9,1.1,1.2,1.5,2.9,1.3,5.1l-1.8,11.2c-.1.8-.2,1.6-.2,2.3v2.3c.1,0,0,.3,0,.3h-3.6ZM475.7,364.4c1.8,0,3.4-.9,4.7-2.7l1-5.4h-1.7c-1.4,0-2.7.2-3.8.8-1.1.5-1.9,1.3-2.3,2.2-.4.9-.6,1.9-.5,3,.2,1.4,1.1,2.1,2.6,2.1Z"/>
  <path class="cls-17" d="M497.9,367.8c-2.3-.1-4-1.1-4.9-3.2l-.8,2.7h-3.4l5.6-32.3h3.6l-2.3,12c1.5-2,3.3-3,5.4-2.9,2,0,3.4.8,4.5,2.2,1,1.4,1.5,3.5,1.4,6.2,0,1.5-.2,3.2-.5,5-.3,1.9-.7,3.4-1.2,4.7-1.5,3.7-4,5.5-7.4,5.4ZM503.5,351.7c0-1.5-.4-2.5-1-3.2-.6-.7-1.4-1-2.5-1-1.8,0-3.4,1-4.7,3.1l-1.9,10.9c.7,2,1.9,3,3.6,3.1,1.6,0,3-.5,3.9-1.7,1-1.2,1.7-3.2,2-5.8.3-2.7.5-4.4.5-5.3Z"/>
  <path class="cls-17" d="M521.2,367.3c0-.4-.1-.8-.1-1.2v-1.2c-1.5,2-3.3,2.9-5.1,2.9s-3.2-.6-4.3-1.8c-1-1.2-1.5-2.8-1.4-4.7.2-2.3,1.1-4.2,2.9-5.6,1.8-1.4,4.1-2.1,7.1-2.1h2.5l.3-2.4c.2-2.5-.7-3.8-2.8-3.8s-2,.3-2.8,1c-.7.7-1.2,1.5-1.4,2.5h-3.6c.2-1.9,1.1-3.5,2.6-4.8,1.6-1.3,3.4-1.9,5.5-1.9,2,0,3.6.7,4.7,1.9,1.1,1.2,1.5,2.9,1.3,5.1l-1.8,11.2c-.1.8-.2,1.6-.2,2.3v2.3c.1,0,0,.3,0,.3h-3.6ZM516.7,364.4c1.8,0,3.4-.9,4.7-2.7l1-5.4h-1.7c-1.4,0-2.7.2-3.8.8-1.1.5-1.9,1.3-2.3,2.2-.4.9-.6,1.9-.5,3,.2,1.4,1.1,2.1,2.6,2.1Z"/>
  <path class="cls-17" d="M537.5,344.6l-4.3,25.4c-.3,2.3-1,3.9-1.9,5-1,1.1-2.2,1.6-3.8,1.6-.6,0-1.3-.2-2.2-.4l.3-3.1c.7.2,1.1.2,1.4.2,1.3,0,2.1-.9,2.4-2.7l4.4-25.9h3.6ZM536.6,336.3c.6,0,1.1.2,1.4.6.4.4.6,1,.5,1.7,0,.6-.2,1.1-.6,1.6-.4.4-.9.7-1.5.7-.6,0-1.1-.2-1.5-.6-.4-.4-.5-1-.5-1.6,0-.6.2-1.1.6-1.6.4-.5.9-.7,1.5-.7Z"/>
  <path class="cls-17" d="M540.8,354.9c.5-3.3,1.6-5.9,3.4-7.9,1.8-2,4-3,6.7-2.9,1.7,0,3.1.5,4.2,1.5,1.1.9,1.9,2.2,2.4,3.8.5,1.6.6,3.5.4,5.4l-.2,2.1c-.5,3.2-1.6,5.9-3.4,7.8-1.8,2-4,2.9-6.7,2.9-1.7,0-3.1-.5-4.2-1.5-1.1-.9-1.9-2.2-2.4-3.8-.5-1.6-.6-3.4-.4-5.4l.2-2.1ZM544.1,358.6c0,1.9.2,3.3.9,4.4.6,1,1.6,1.6,2.8,1.6,1.6,0,3-.5,4-1.7,1.1-1.2,1.8-3.1,2.1-5.5l.3-2.5v-1.5c.2-1.9-.1-3.4-.8-4.4-.6-1-1.6-1.6-2.8-1.6-1.6,0-3,.6-4.1,2.1-1.1,1.4-1.8,3.4-2.1,6l-.3,2.1v1.1Z"/>
  <path class="cls-17" d="M578.7,367.8c-2.5,0-4.5-1-5.7-2.7-1.3-1.8-1.7-4.3-1.4-7.4l.3-2.3c.4-3.5,1.5-6.3,3.2-8.3,1.7-2,3.9-3,6.5-2.9,2.2,0,3.8.8,4.9,2.2,1.1,1.4,1.6,3.4,1.6,6l-.2,2.5-.3,2.1h-12.2c-.2,1.3-.3,2.2-.3,3,0,1.4.4,2.5,1,3.4.7.8,1.6,1.2,2.9,1.2.9,0,1.8-.2,2.6-.5.9-.4,1.8-1.1,2.8-2l1.7,2.4c-.9,1.2-2,2-3.3,2.6-1.3.5-2.7.8-4.1.8ZM581.5,347.3c-2.5-.1-4.2,1.4-5.2,4.5l-.6,2h8.7s0-.5,0-.5c0-.7.1-1.3.1-2,0-2.5-1.1-3.9-3.2-4Z"/>
  <path class="cls-17" d="M597.4,344.6l-.5,2.5c1.7-1.9,3.5-2.9,5.6-2.9,1.4,0,2.6.5,3.4,1.5.8,1,1.3,2.3,1.4,4,0,1,0,1.9,0,2.8l-2.5,14.9h-3.6l2.5-15v-1.7c0-2.1-.8-3.2-2.5-3.3-1.4,0-2.8.8-4,2.5l-.6.9-2.9,16.5h-3.6l3.9-22.7h3.4Z"/>
  <path class="cls-17" d="M628.7,367.8c-2.5,0-4.5-1-5.7-2.7-1.3-1.8-1.7-4.3-1.4-7.4l.3-2.3c.4-3.5,1.5-6.3,3.2-8.3,1.7-2,3.9-3,6.5-2.9,2.2,0,3.8.8,4.9,2.2,1.1,1.4,1.6,3.4,1.6,6l-.2,2.5-.3,2.1h-12.2c-.2,1.3-.3,2.2-.3,3,0,1.4.4,2.5,1,3.4.7.8,1.6,1.2,2.9,1.2.9,0,1.8-.2,2.6-.5.9-.4,1.8-1.1,2.8-2l1.7,2.4c-.9,1.2-2,2-3.3,2.6-1.3.5-2.7.8-4.1.8ZM631.4,347.3c-2.5-.1-4.2,1.4-5.2,4.5l-.6,2h8.7s0-.5,0-.5c0-.7.1-1.3.1-2,0-2.5-1.1-3.9-3.2-4Z"/>
  <path class="cls-17" d="M650.4,344.2c2.1,0,3.7,1,4.7,2.7l.7-2.3h3.3l-5.5,31.5h-3.6l2.1-10.7c-1.5,1.7-3.2,2.5-5.1,2.4-2,0-3.5-.8-4.6-2.3-1-1.5-1.5-3.5-1.4-6.1,0-1.2.2-2.8.5-4.8.3-2,.8-3.8,1.4-5.3,1.6-3.5,4.1-5.2,7.5-5.1ZM644.6,360.3c.1,2.8,1.3,4.3,3.5,4.3,1.6,0,3-.8,4.3-2.5l2.1-12.3c-.8-1.6-1.9-2.4-3.4-2.5-1.7,0-3,.5-4.1,1.8-1,1.3-1.7,3.2-2.1,5.7-.3,2.5-.5,4.4-.4,5.4Z"/>
  <path class="cls-17" d="M672.8,365.3c-1.5,1.7-3.3,2.5-5.4,2.4-1.6,0-2.8-.6-3.7-1.7-.9-1.2-1.3-2.8-1.3-4.8v-1.9c.1,0,2.6-14.7,2.6-14.7h3.6l-2.4,14.8v1.5c-.1,1,0,1.9.4,2.5.4.7,1,1,1.7,1,2,.1,3.7-.9,5-3l2.9-16.9h3.6l-3.9,22.7h-3.4l.4-2Z"/>
  <path class="cls-17" d="M685.4,367.3h-3.6l3.9-22.7h3.6l-3.9,22.7ZM686.5,338.6c0-.6.2-1.1.6-1.6.4-.5.9-.7,1.5-.7.6,0,1.1.2,1.5.6.4.4.6,1,.5,1.6,0,.6-.2,1.1-.6,1.6-.4.4-.9.7-1.5.7-.6,0-1.1-.2-1.5-.6-.4-.4-.5-1-.5-1.6Z"/>
  <path class="cls-17" d="M700.2,367.8c-2.2,0-3.8-.9-4.9-2.6l-2.1,10.9h-3.6l5.5-31.5h3.3s-.4,2.5-.4,2.5c1.5-2,3.4-3,5.5-3,2,0,3.5.8,4.5,2.3,1,1.5,1.5,3.5,1.4,6.1,0,1.2-.2,2.8-.5,4.8-.3,2-.7,3.6-1.2,4.9-1.5,3.8-4,5.6-7.5,5.5ZM705.8,351.7c-.2-2.8-1.4-4.2-3.6-4.2-1.7,0-3.1.8-4.4,2.7l-2.1,11.9c.7,1.7,1.8,2.5,3.5,2.6,1.6,0,3-.5,4-1.8,1.1-1.2,1.7-3.2,2.1-5.8.3-2.6.5-4.4.4-5.4Z"/>
  <path class="cls-17" d="M713.5,354.9c.5-3.3,1.6-5.9,3.4-7.9,1.8-2,4-3,6.7-2.9,1.7,0,3.1.5,4.2,1.5,1.1.9,1.9,2.2,2.4,3.8.5,1.6.6,3.5.4,5.4l-.2,2.1c-.5,3.2-1.6,5.9-3.4,7.8-1.8,2-4,2.9-6.7,2.9-1.7,0-3.1-.5-4.2-1.5-1.1-.9-1.9-2.2-2.4-3.8-.5-1.6-.6-3.4-.4-5.4l.2-2.1ZM716.7,358.6c0,1.9.2,3.3.9,4.4.6,1,1.6,1.6,2.8,1.6,1.6,0,3-.5,4-1.7,1.1-1.2,1.8-3.1,2.1-5.5l.3-2.5v-1.5c.2-1.9-.1-3.4-.8-4.4-.6-1-1.6-1.6-2.8-1.6-1.6,0-3,.6-4.1,2.1-1.1,1.4-1.8,3.4-2.1,6l-.3,2.1v1.1Z"/>
  <path class="cls-17" d="M911.2,533.1c-2.6,0-4.6-1-6-2.7-1.4-1.8-2.2-4.2-2.2-7.3,0-1,0-2,.2-3l.9-5.7c.7-4,2.1-7.2,4.1-9.4,2.1-2.2,4.7-3.3,7.8-3.2,2.4,0,4.3.8,5.7,2.4,1.4,1.5,2.2,3.7,2.5,6.5v1.1c0,1,0,2.1-.1,3.1l-.9,5.8c-.7,4.1-2.1,7.2-4.1,9.4-2,2.2-4.6,3.2-7.7,3.2ZM920.2,514.7l.2-2c.1-2.4-.2-4.3-1-5.6-.8-1.3-2-1.9-3.7-2-2.1,0-3.8.7-5.1,2.2-1.4,1.6-2.3,3.9-2.8,7l-.9,6.1v1.7c-.3,2.4,0,4.2.8,5.6.8,1.3,2.1,2,3.7,2.1,4.1.1,6.7-2.7,7.8-8.6l1-6.4Z"/>
  <path class="cls-17" d="M939,513.4c-.6-.1-1.2-.2-1.6-.2-1.8,0-3.3,1.1-4.5,3.2l-2.8,16.3h-3.6l3.9-22.7h3.5s-.5,2.3-.5,2.3c1.3-1.9,2.8-2.8,4.5-2.8.3,0,.8.1,1.5.3l-.4,3.6Z"/>
  <path class="cls-17" d="M943.2,532.7h-3.6l3.9-22.7h3.6l-3.9,22.7ZM944.4,503.9c0-.6.2-1.1.6-1.6.4-.5.9-.7,1.5-.7.6,0,1.1.2,1.5.6.4.4.6,1,.5,1.6,0,.6-.2,1.1-.6,1.6-.4.4-.9.7-1.5.7-.6,0-1.1-.2-1.5-.6-.4-.4-.5-1-.5-1.6Z"/>
  <path class="cls-17" d="M957.5,533.1c-2.5,0-4.5-1-5.7-2.7-1.3-1.8-1.7-4.3-1.4-7.4l.3-2.3c.4-3.5,1.5-6.3,3.2-8.3,1.7-2,3.9-3,6.5-2.9,2.2,0,3.8.8,4.9,2.2,1.1,1.4,1.6,3.4,1.6,6l-.2,2.5-.3,2.1h-12.2c-.2,1.3-.3,2.2-.3,3,0,1.4.4,2.5,1,3.4.7.8,1.6,1.2,2.9,1.2.9,0,1.8-.2,2.6-.5.9-.4,1.8-1.1,2.8-2l1.7,2.4c-.9,1.2-2,2-3.3,2.6-1.3.5-2.7.8-4.1.8ZM960.2,512.7c-2.5-.1-4.2,1.4-5.2,4.5l-.6,2h8.7s0-.5,0-.5c0-.7.1-1.3.1-2,0-2.5-1.1-3.9-3.2-4Z"/>
  <path class="cls-17" d="M976.1,509.9l-.5,2.5c1.7-1.9,3.5-2.9,5.6-2.9,1.4,0,2.6.5,3.4,1.5.8,1,1.3,2.3,1.4,4,0,1,0,1.9,0,2.8l-2.5,14.9h-3.6l2.5-15v-1.7c0-2.1-.8-3.2-2.5-3.3-1.4,0-2.8.8-4,2.5l-.6.9-2.9,16.5h-3.6l3.9-22.7h3.4Z"/>
  <path class="cls-17" d="M998.9,504.4l-1,5.5h3.3l-.5,3h-3.3l-2.4,14.1v.8c0,1.2.3,1.8,1.2,1.8s.8,0,1.5-.2l-.3,3.2c-.8.3-1.6.4-2.4.4-1.3,0-2.2-.5-2.9-1.6-.6-1.1-.9-2.5-.7-4.5l2.3-14.1h-3.4l.5-3h3.4l1-5.5h3.6Z"/>
  <path class="cls-17" d="M1013.4,532.7c0-.4-.1-.8-.1-1.2v-1.2c-1.5,2-3.3,2.9-5.1,2.9s-3.2-.6-4.3-1.8c-1-1.2-1.5-2.8-1.4-4.7.2-2.3,1.1-4.2,2.9-5.6,1.8-1.4,4.1-2.1,7.1-2.1h2.5l.3-2.4c.2-2.5-.7-3.8-2.8-3.8s-2,.3-2.8,1c-.7.7-1.2,1.5-1.4,2.5h-3.6c.2-1.9,1.1-3.5,2.6-4.8,1.6-1.3,3.4-1.9,5.5-1.9,2,0,3.6.7,4.7,1.9,1.1,1.2,1.5,2.9,1.3,5.1l-1.8,11.2c-.1.8-.2,1.6-.2,2.3v2.3c.1,0,0,.3,0,.3h-3.6ZM1008.9,529.8c1.8,0,3.4-.9,4.7-2.7l1-5.4h-1.7c-1.4,0-2.7.2-3.8.8-1.1.5-1.9,1.3-2.3,2.2-.4.9-.6,1.9-.5,3,.2,1.4,1.1,2.1,2.6,2.1Z"/>
  <path class="cls-17" d="M1030.2,530c1.2,0,2.2-.3,3-1.1.8-.8,1.4-1.9,1.7-3.3h3.4c-.3,2.2-1.3,4-2.8,5.5s-3.4,2.1-5.5,2.1c-2,0-3.6-.6-4.8-1.8-1.2-1.2-1.9-2.8-2.1-4.9-.1-1.3-.1-2.5,0-3.8l.3-2.3c.5-3.5,1.5-6.2,3.2-8.1,1.7-1.9,3.9-2.8,6.7-2.7,2.1,0,3.7.8,4.9,2.3,1.2,1.5,1.7,3.5,1.6,6h-3.4c0-3.3-1-5-3.2-5.1-3.3-.1-5.3,2.2-6,7-.4,3-.6,5-.5,6.1.1,2.7,1.3,4.1,3.6,4.1Z"/>
  <path class="cls-17" d="M1045.4,532.7h-3.6l3.9-22.7h3.6l-3.9,22.7ZM1046.5,503.9c0-.6.2-1.1.6-1.6.4-.5.9-.7,1.5-.7.6,0,1.1.2,1.5.6.4.4.6,1,.5,1.6,0,.6-.2,1.1-.6,1.6-.4.4-.9.7-1.5.7-.6,0-1.1-.2-1.5-.6-.4-.4-.5-1-.5-1.6Z"/>
  <path class="cls-17" d="M1052.7,520.3c.5-3.3,1.6-5.9,3.4-7.9,1.8-2,4-3,6.7-2.9,1.7,0,3.1.5,4.2,1.5,1.1.9,1.9,2.2,2.4,3.8.5,1.6.6,3.5.4,5.4l-.2,2.1c-.5,3.2-1.6,5.9-3.4,7.8-1.8,2-4,2.9-6.7,2.9-1.7,0-3.1-.5-4.2-1.5-1.1-.9-1.9-2.2-2.4-3.8-.5-1.6-.6-3.4-.4-5.4l.2-2.1ZM1056,523.9c0,1.9.2,3.3.9,4.4.6,1,1.6,1.6,2.8,1.6,1.6,0,3-.5,4-1.7,1.1-1.2,1.8-3.1,2.1-5.5l.3-2.5v-1.5c.2-1.9-.1-3.4-.8-4.4-.6-1-1.6-1.6-2.8-1.6-1.6,0-3,.6-4.1,2.1-1.1,1.4-1.8,3.4-2.1,6l-.3,2.1v1.1ZM1065.8,500.4h4.9l-6.4,6.2h-3.3l4.9-6.2Z"/>
  <path class="cls-17" d="M1079.7,509.9l-.5,2.5c1.7-1.9,3.5-2.9,5.6-2.9,1.4,0,2.6.5,3.4,1.5.8,1,1.3,2.3,1.4,4,0,1,0,1.9,0,2.8l-2.5,14.9h-3.6l2.5-15v-1.7c0-2.1-.8-3.2-2.5-3.3-1.4,0-2.8.8-4,2.5l-.6.9-2.9,16.5h-3.6l3.9-22.7h3.4Z"/>
  <path class="cls-17" d="M1114.2,532.7c0-.4-.1-.8-.1-1.2v-1.2c-1.5,2-3.3,2.9-5.1,2.9s-3.2-.6-4.3-1.8c-1-1.2-1.5-2.8-1.4-4.7.2-2.3,1.1-4.2,2.9-5.6,1.8-1.4,4.1-2.1,7.1-2.1h2.5l.3-2.4c.2-2.5-.7-3.8-2.8-3.8s-2,.3-2.8,1c-.7.7-1.2,1.5-1.4,2.5h-3.6c.2-1.9,1.1-3.5,2.6-4.8,1.6-1.3,3.4-1.9,5.5-1.9,2,0,3.6.7,4.7,1.9,1.1,1.2,1.5,2.9,1.3,5.1l-1.8,11.2c-.1.8-.2,1.6-.2,2.3v2.3c.1,0,0,.3,0,.3h-3.6ZM1109.7,529.8c1.8,0,3.4-.9,4.7-2.7l1-5.4h-1.7c-1.4,0-2.7.2-3.8.8-1.1.5-1.9,1.3-2.3,2.2-.4.9-.6,1.9-.5,3,.2,1.4,1.1,2.1,2.6,2.1Z"/>
  <path class="cls-17" d="M1126.7,532.7h-3.6l5.6-32.3h3.6l-5.6,32.3Z"/>
  <path class="cls-17" d="M969.3,571.8c1.2,0,2.2-.3,3-1.1.8-.8,1.4-1.9,1.7-3.3h3.4c-.3,2.2-1.3,4-2.8,5.5s-3.4,2.1-5.5,2.1c-2,0-3.6-.6-4.8-1.8-1.2-1.2-1.9-2.8-2.1-4.9-.1-1.3-.1-2.5,0-3.8l.3-2.3c.5-3.5,1.5-6.2,3.2-8.1,1.7-1.9,3.9-2.8,6.7-2.7,2.1,0,3.7.8,4.9,2.3,1.2,1.5,1.7,3.5,1.6,6h-3.4c0-3.3-1-5-3.2-5.1-3.3-.1-5.3,2.2-6,7-.4,3-.6,5-.5,6.1.1,2.7,1.3,4.1,3.6,4.1Z"/>
  <path class="cls-17" d="M984.5,574.5h-3.6l5.6-32.3h3.6l-5.6,32.3Z"/>
  <path class="cls-17" d="M994.3,574.5h-3.6l3.9-22.7h3.6l-3.9,22.7ZM995.4,545.8c0-.6.2-1.1.6-1.6.4-.5.9-.7,1.5-.7.6,0,1.1.2,1.5.6.4.4.6,1,.5,1.6,0,.6-.2,1.1-.6,1.6-.4.4-.9.7-1.5.7-.6,0-1.1-.2-1.5-.6-.4-.4-.5-1-.5-1.6Z"/>
  <path class="cls-17" d="M1008.6,575c-2.5,0-4.5-1-5.7-2.7-1.3-1.8-1.7-4.3-1.4-7.4l.3-2.3c.4-3.5,1.5-6.3,3.2-8.3,1.7-2,3.9-3,6.5-2.9,2.2,0,3.8.8,4.9,2.2,1.1,1.4,1.6,3.4,1.6,6l-.2,2.5-.3,2.1h-12.2c-.2,1.3-.3,2.2-.3,3,0,1.4.4,2.5,1,3.4.7.8,1.6,1.2,2.9,1.2.9,0,1.8-.2,2.6-.5.9-.4,1.8-1.1,2.8-2l1.7,2.4c-.9,1.2-2,2-3.3,2.6-1.3.5-2.7.8-4.1.8ZM1011.3,554.6c-2.5-.1-4.2,1.4-5.2,4.5l-.6,2h8.7s0-.5,0-.5c0-.7.1-1.3.1-2,0-2.5-1.1-3.9-3.2-4Z"/>
  <path class="cls-17" d="M1027.2,551.8l-.5,2.5c1.7-1.9,3.5-2.9,5.6-2.9,1.4,0,2.6.5,3.4,1.5.8,1,1.3,2.3,1.4,4,0,1,0,1.9,0,2.8l-2.5,14.9h-3.6l2.5-15v-1.7c0-2.1-.8-3.2-2.5-3.3-1.4,0-2.8.8-4,2.5l-.6.9-2.9,16.5h-3.6l3.9-22.7h3.4Z"/>
  <path class="cls-17" d="M1049.9,546.3l-1,5.5h3.3l-.5,3h-3.3l-2.4,14.1v.8c0,1.2.3,1.8,1.2,1.8s.8,0,1.5-.2l-.3,3.2c-.8.3-1.6.4-2.4.4-1.3,0-2.2-.5-2.9-1.6-.6-1.1-.9-2.5-.7-4.5l2.3-14.1h-3.4l.5-3h3.4l1-5.5h3.6Z"/>
  <path class="cls-17" d="M1061.3,575c-2.5,0-4.5-1-5.7-2.7-1.3-1.8-1.7-4.3-1.4-7.4l.3-2.3c.4-3.5,1.5-6.3,3.2-8.3,1.7-2,3.9-3,6.5-2.9,2.2,0,3.8.8,4.9,2.2,1.1,1.4,1.6,3.4,1.6,6l-.2,2.5-.3,2.1h-12.2c-.2,1.3-.3,2.2-.3,3,0,1.4.4,2.5,1,3.4.7.8,1.6,1.2,2.9,1.2.9,0,1.8-.2,2.6-.5.9-.4,1.8-1.1,2.8-2l1.7,2.4c-.9,1.2-2,2-3.3,2.6-1.3.5-2.7.8-4.1.8ZM1064,554.6c-2.5-.1-4.2,1.4-5.2,4.5l-.6,2h8.7s0-.5,0-.5c0-.7.1-1.3.1-2,0-2.5-1.1-3.9-3.2-4Z"/>
  <path class="cls-17" d="M884.1,1011.6h-5.3l-2.2,12.4h-3.8l5.3-30.6h8.1c2.6.1,4.6,1,5.9,2.6,1.3,1.6,1.9,3.8,1.6,6.5-.2,2-.8,3.6-1.8,5-1,1.4-2.5,2.5-4.2,3.3l3.6,12.9v.3h-4.1l-3.1-12.4ZM879.3,1008.3h4.4c1.3,0,2.5-.3,3.5-1,1-.7,1.8-1.7,2.3-2.9.5-1.3.7-2.6.5-4.1-.1-1.1-.5-1.9-1.2-2.5-.6-.6-1.5-1-2.7-1h-4.8s-2,11.6-2,11.6Z"/>
  <path class="cls-17" d="M903.2,1024.4c-2.5,0-4.5-1-5.7-2.7-1.3-1.8-1.7-4.3-1.4-7.4l.3-2.3c.4-3.5,1.5-6.3,3.2-8.3,1.7-2,3.9-3,6.5-2.9,2.2,0,3.8.8,4.9,2.2,1.1,1.4,1.6,3.4,1.6,6l-.2,2.5-.3,2.1h-12.2c-.2,1.3-.3,2.2-.3,3,0,1.4.4,2.5,1,3.4.7.8,1.6,1.2,2.9,1.2.9,0,1.8-.2,2.6-.5.9-.4,1.8-1.1,2.8-2l1.7,2.4c-.9,1.2-2,2-3.3,2.6-1.3.5-2.7.8-4.1.8ZM905.9,1004c-2.5-.1-4.2,1.4-5.2,4.5l-.6,2h8.7s0-.5,0-.5c0-.7.1-1.3.1-2,0-2.5-1.1-3.9-3.2-4Z"/>
  <path class="cls-17" d="M926.3,1018c.2-1.3-.5-2.4-2.2-3.3l-2.8-1.5c-1.4-.8-2.5-1.7-3.1-2.6-.6-.9-.8-2-.8-3.2.1-1.9.9-3.5,2.3-4.7,1.5-1.3,3.2-1.9,5.4-1.9,2,0,3.6.7,4.7,2,1.2,1.3,1.7,2.9,1.6,4.9h-3.6c0-1.1-.2-2-.8-2.7-.5-.7-1.3-1-2.2-1-1.1,0-2,.3-2.7.9-.7.6-1.1,1.4-1.2,2.4-.2,1.1.4,2.1,1.6,2.8l3.6,1.8c2.6,1.5,3.9,3.4,3.7,5.8-.1,2.1-1,3.7-2.5,4.9-1.5,1.2-3.3,1.8-5.5,1.8-2.1,0-3.8-.7-5.1-2.1-1.3-1.3-1.9-3.1-1.8-5.2h3.6c0,1.3.3,2.3.9,3,.6.7,1.4,1,2.5,1s2.1-.3,2.9-.9c.8-.6,1.2-1.4,1.3-2.3Z"/>
  <path class="cls-17" d="M942.7,1024.4c-2.2,0-3.8-.9-4.9-2.6l-2.1,10.9h-3.6l5.5-31.5h3.3s-.4,2.5-.4,2.5c1.5-2,3.4-3,5.5-3,2,0,3.5.8,4.5,2.3,1,1.5,1.5,3.5,1.4,6.1,0,1.2-.2,2.8-.5,4.8-.3,2-.7,3.6-1.2,4.9-1.5,3.8-4,5.6-7.5,5.5ZM948.3,1008.4c-.2-2.8-1.4-4.2-3.6-4.2-1.7,0-3.1.8-4.4,2.7l-2.1,11.9c.7,1.7,1.8,2.5,3.5,2.6,1.6,0,3-.5,4-1.8,1.1-1.2,1.7-3.2,2.1-5.8.3-2.6.5-4.4.4-5.4Z"/>
  <path class="cls-17" d="M956,1011.6c.5-3.3,1.6-5.9,3.4-7.9,1.8-2,4-3,6.7-2.9,1.7,0,3.1.5,4.2,1.5,1.1.9,1.9,2.2,2.4,3.8.5,1.6.6,3.5.4,5.4l-.2,2.1c-.5,3.2-1.6,5.9-3.4,7.8-1.8,2-4,2.9-6.7,2.9-1.7,0-3.1-.5-4.2-1.5-1.1-.9-1.9-2.2-2.4-3.8-.5-1.6-.6-3.4-.4-5.4l.2-2.1ZM959.2,1015.3c0,1.9.2,3.3.9,4.4.6,1,1.6,1.6,2.8,1.6,1.6,0,3-.5,4-1.7,1.1-1.2,1.8-3.1,2.1-5.5l.3-2.5v-1.5c.2-1.9-.1-3.4-.8-4.4-.6-1-1.6-1.6-2.8-1.6-1.6,0-3,.6-4.1,2.1-1.1,1.4-1.8,3.4-2.1,6l-.3,2.1v1.1Z"/>
  <path class="cls-17" d="M983,1001.2l-.5,2.5c1.7-1.9,3.5-2.9,5.6-2.9,1.4,0,2.6.5,3.4,1.5.8,1,1.3,2.3,1.4,4,0,1,0,1.9,0,2.8l-2.5,14.9h-3.6l2.5-15v-1.7c0-2.1-.8-3.2-2.5-3.3-1.4,0-2.8.8-4,2.5l-.6.9-2.9,16.5h-3.6l3.9-22.7h3.4Z"/>
  <path class="cls-17" d="M1007.9,1018c.2-1.3-.5-2.4-2.2-3.3l-2.8-1.5c-1.4-.8-2.5-1.7-3.1-2.6-.6-.9-.8-2-.8-3.2.1-1.9.9-3.5,2.3-4.7,1.5-1.3,3.2-1.9,5.4-1.9,2,0,3.6.7,4.7,2,1.2,1.3,1.7,2.9,1.6,4.9h-3.6c0-1.1-.2-2-.8-2.7-.5-.7-1.3-1-2.2-1-1.1,0-2,.3-2.7.9-.7.6-1.1,1.4-1.2,2.4-.2,1.1.4,2.1,1.6,2.8l3.6,1.8c2.6,1.5,3.9,3.4,3.7,5.8-.1,2.1-1,3.7-2.5,4.9-1.5,1.2-3.3,1.8-5.5,1.8-2.1,0-3.8-.7-5.1-2.1-1.3-1.3-1.9-3.1-1.8-5.2h3.6c0,1.3.3,2.3.9,3,.6.7,1.4,1,2.5,1s2.1-.3,2.9-.9c.8-.6,1.2-1.4,1.3-2.3Z"/>
  <path class="cls-17" d="M1026.9,1024c0-.4-.1-.8-.1-1.2v-1.2c-1.5,2-3.3,2.9-5.1,2.9s-3.2-.6-4.3-1.8c-1-1.2-1.5-2.8-1.4-4.7.2-2.3,1.1-4.2,2.9-5.6,1.8-1.4,4.1-2.1,7.1-2.1h2.5l.3-2.4c.2-2.5-.7-3.8-2.8-3.8s-2,.3-2.8,1c-.7.7-1.2,1.5-1.4,2.5h-3.6c.2-1.9,1.1-3.5,2.6-4.8,1.6-1.3,3.4-1.9,5.5-1.9,2,0,3.6.7,4.7,1.9,1.1,1.2,1.5,2.9,1.3,5.1l-1.8,11.2c-.1.8-.2,1.6-.2,2.3v2.3c.1,0,0,.3,0,.3h-3.6ZM1022.4,1021.1c1.8,0,3.4-.9,4.7-2.7l1-5.4h-1.7c-1.4,0-2.7.2-3.8.8-1.1.5-1.9,1.3-2.3,2.2-.4.9-.6,1.9-.5,3,.2,1.4,1.1,2.1,2.6,2.1Z"/>
  <path class="cls-17" d="M1044.6,1024.4c-2.3-.1-4-1.1-4.9-3.2l-.8,2.7h-3.4l5.6-32.3h3.6l-2.3,12c1.5-2,3.3-3,5.4-2.9,2,0,3.4.8,4.5,2.2,1,1.4,1.5,3.5,1.4,6.2,0,1.5-.2,3.2-.5,5-.3,1.9-.7,3.4-1.2,4.7-1.5,3.7-4,5.5-7.4,5.4ZM1050.2,1008.4c0-1.5-.4-2.5-1-3.2-.6-.7-1.4-1-2.5-1-1.8,0-3.4,1-4.7,3.1l-1.9,10.9c.7,2,1.9,3,3.6,3.1,1.6,0,3-.5,3.9-1.7,1-1.2,1.7-3.2,2-5.8.3-2.7.5-4.4.5-5.3Z"/>
  <path class="cls-17" d="M1060.2,1024h-3.6l3.9-22.7h3.6l-3.9,22.7ZM1061.4,995.3c0-.6.2-1.1.6-1.6.4-.5.9-.7,1.5-.7.6,0,1.1.2,1.5.6.4.4.6,1,.5,1.6,0,.6-.2,1.1-.6,1.6-.4.4-.9.7-1.5.7-.6,0-1.1-.2-1.5-.6-.4-.4-.5-1-.5-1.6Z"/>
  <path class="cls-17" d="M1070,1024h-3.6l5.6-32.3h3.6l-5.6,32.3Z"/>
  <path class="cls-17" d="M1079.8,1024h-3.6l3.9-22.7h3.6l-3.9,22.7ZM1080.9,995.3c0-.6.2-1.1.6-1.6.4-.5.9-.7,1.5-.7.6,0,1.1.2,1.5.6.4.4.6,1,.5,1.6,0,.6-.2,1.1-.6,1.6-.4.4-.9.7-1.5.7-.6,0-1.1-.2-1.5-.6-.4-.4-.5-1-.5-1.6Z"/>
  <path class="cls-17" d="M1095.9,1000.9c2.1,0,3.7.9,4.7,2.7l2.2-11.8h3.6l-5.6,32.3h-3.3l.4-2.4c-1.5,2-3.3,2.9-5.4,2.9-1.9,0-3.4-.8-4.4-2.2-1-1.4-1.5-3.5-1.5-6.2s.2-2.9.5-4.9c.3-2.1.8-3.8,1.5-5.2,1.6-3.4,4-5.1,7.3-5ZM1090.2,1016.9c0,2.8,1.2,4.2,3.5,4.3.8,0,1.5-.2,2.3-.6.7-.4,1.5-1.2,2.2-2.2l2-11.5c-.7-1.7-1.9-2.7-3.5-2.7-3.3-.2-5.3,2.3-6,7.3-.3,2.5-.5,4.3-.4,5.5Z"/>
  <path class="cls-17" d="M1118.2,1024c0-.4-.1-.8-.1-1.2v-1.2c-1.5,2-3.3,2.9-5.1,2.9s-3.2-.6-4.3-1.8c-1-1.2-1.5-2.8-1.4-4.7.2-2.3,1.1-4.2,2.9-5.6,1.8-1.4,4.1-2.1,7.1-2.1h2.5l.3-2.4c.2-2.5-.7-3.8-2.8-3.8s-2,.3-2.8,1c-.7.7-1.2,1.5-1.4,2.5h-3.6c.2-1.9,1.1-3.5,2.6-4.8,1.6-1.3,3.4-1.9,5.5-1.9,2,0,3.6.7,4.7,1.9,1.1,1.2,1.5,2.9,1.3,5.1l-1.8,11.2c-.1.8-.2,1.6-.2,2.3v2.3c.1,0,0,.3,0,.3h-3.6ZM1113.7,1021.1c1.8,0,3.4-.9,4.7-2.7l1-5.4h-1.7c-1.4,0-2.7.2-3.8.8-1.1.5-1.9,1.3-2.3,2.2-.4.9-.6,1.9-.5,3,.2,1.4,1.1,2.1,2.6,2.1Z"/>
  <path class="cls-17" d="M1137.1,1000.9c2.1,0,3.7.9,4.7,2.7l2.2-11.8h3.6l-5.6,32.3h-3.3l.4-2.4c-1.5,2-3.3,2.9-5.4,2.9-1.9,0-3.4-.8-4.4-2.2-1-1.4-1.5-3.5-1.5-6.2s.2-2.9.5-4.9c.3-2.1.8-3.8,1.5-5.2,1.6-3.4,4-5.1,7.3-5ZM1131.4,1016.9c0,2.8,1.2,4.2,3.5,4.3.8,0,1.5-.2,2.3-.6.7-.4,1.5-1.2,2.2-2.2l2-11.5c-.7-1.7-1.9-2.7-3.5-2.7-3.3-.2-5.3,2.3-6,7.3-.3,2.5-.5,4.3-.4,5.5Z"/>
  <path class="cls-17" d="M972,1059.9c.2-1.3-.5-2.4-2.2-3.3l-2.8-1.5c-1.4-.8-2.5-1.7-3.1-2.6-.6-.9-.8-2-.8-3.2.1-1.9.9-3.5,2.3-4.7,1.5-1.3,3.2-1.9,5.4-1.9,2,0,3.6.7,4.7,2,1.2,1.3,1.7,2.9,1.6,4.9h-3.6c0-1.1-.2-2-.8-2.7-.5-.7-1.3-1-2.2-1-1.1,0-2,.3-2.7.9-.7.6-1.1,1.4-1.2,2.4-.2,1.1.4,2.1,1.6,2.8l3.6,1.8c2.6,1.5,3.9,3.4,3.7,5.8-.1,2.1-1,3.7-2.5,4.9-1.5,1.2-3.3,1.8-5.5,1.8-2.1,0-3.8-.7-5.1-2.1-1.3-1.3-1.9-3.1-1.8-5.2h3.6c0,1.3.3,2.3.9,3,.6.7,1.4,1,2.5,1s2.1-.3,2.9-.9c.8-.6,1.2-1.4,1.3-2.3Z"/>
  <path class="cls-17" d="M980.9,1053.5c.5-3.3,1.6-5.9,3.4-7.9,1.8-2,4-3,6.7-2.9,1.7,0,3.1.5,4.2,1.5,1.1.9,1.9,2.2,2.4,3.8.5,1.6.6,3.5.4,5.4l-.2,2.1c-.5,3.2-1.6,5.9-3.4,7.8-1.8,2-4,2.9-6.7,2.9-1.7,0-3.1-.5-4.2-1.5-1.1-.9-1.9-2.2-2.4-3.8-.5-1.6-.6-3.4-.4-5.4l.2-2.1ZM984.2,1057.1c0,1.9.2,3.3.9,4.4.6,1,1.6,1.6,2.8,1.6,1.6,0,3-.5,4-1.7,1.1-1.2,1.8-3.1,2.1-5.5l.3-2.5v-1.5c.2-1.9-.1-3.4-.8-4.4-.6-1-1.6-1.6-2.8-1.6-1.6,0-3,.6-4.1,2.1-1.1,1.4-1.8,3.4-2.1,6l-.3,2.1v1.1Z"/>
  <path class="cls-17" d="M1008.8,1063.1c1.2,0,2.2-.3,3-1.1.8-.8,1.4-1.9,1.7-3.3h3.4c-.3,2.2-1.3,4-2.8,5.5s-3.4,2.1-5.5,2.1c-2,0-3.6-.6-4.8-1.8-1.2-1.2-1.9-2.8-2.1-4.9-.1-1.3-.1-2.5,0-3.8l.3-2.3c.5-3.5,1.5-6.2,3.2-8.1,1.7-1.9,3.9-2.8,6.7-2.7,2.1,0,3.7.8,4.9,2.3,1.2,1.5,1.7,3.5,1.6,6h-3.4c0-3.3-1-5-3.2-5.1-3.3-.1-5.3,2.2-6,7-.4,3-.6,5-.5,6.1.1,2.7,1.3,4.1,3.6,4.1Z"/>
  <path class="cls-17" d="M1024,1065.9h-3.6l3.9-22.7h3.6l-3.9,22.7ZM1025.2,1037.1c0-.6.2-1.1.6-1.6.4-.5.9-.7,1.5-.7.6,0,1.1.2,1.5.6.4.4.6,1,.5,1.6,0,.6-.2,1.1-.6,1.6-.4.4-.9.7-1.5.7-.6,0-1.1-.2-1.5-.6-.4-.4-.5-1-.5-1.6Z"/>
  <path class="cls-17" d="M1041.5,1065.9c0-.4-.1-.8-.1-1.2v-1.2c-1.5,2-3.3,2.9-5.1,2.9s-3.2-.6-4.3-1.8c-1-1.2-1.5-2.8-1.4-4.7.2-2.3,1.1-4.2,2.9-5.6,1.8-1.4,4.1-2.1,7.1-2.1h2.5l.3-2.4c.2-2.5-.7-3.8-2.8-3.8s-2,.3-2.8,1c-.7.7-1.2,1.5-1.4,2.5h-3.6c.2-1.9,1.1-3.5,2.6-4.8,1.6-1.3,3.4-1.9,5.5-1.9,2,0,3.6.7,4.7,1.9,1.1,1.2,1.5,2.9,1.3,5.1l-1.8,11.2c-.1.8-.2,1.6-.2,2.3v2.3c.1,0,0,.3,0,.3h-3.6ZM1037,1062.9c1.8,0,3.4-.9,4.7-2.7l1-5.4h-1.7c-1.4,0-2.7.2-3.8.8-1.1.5-1.9,1.3-2.3,2.2-.4.9-.6,1.9-.5,3,.2,1.4,1.1,2.1,2.6,2.1Z"/>
  <path class="cls-17" d="M1054,1065.9h-3.6l5.6-32.3h3.6l-5.6,32.3Z"/>
  <g class="cls-33">
    <g class="cls-1">
      <g class="cls-19">
        <path class="cls-17" d="M782,555.5l-65.6,41.2c-2.7,1.7-6.3.9-8-1.8l-3.3-5.3c-1.7-2.7-.9-6.3,1.8-8l65.6-41.2c2.7-1.7,6.3-.9,8,1.8l3.3,5.3c1.7,2.7.9,6.3-1.8,8Z"/>
      </g>
    </g>
  </g>
  <g class="cls-29">
    <g class="cls-45">
      <g class="cls-27">
        <path class="cls-17" d="M807.9,520.6l-35.4,1.3c-6,.2-9.6,6.9-6.3,12l18.8,30c3.2,5.1,10.8,4.8,13.6-.5l16.5-31.3c2.8-5.3-1.2-11.7-7.2-11.5Z"/>
      </g>
    </g>
  </g>
  <g class="cls-10">
    <g class="cls-14">
      <g class="cls-25">
        <path class="cls-17" d="M378.5,532.1l71.5,29.8c3,1.2,4.4,4.6,3.1,7.6l-2.4,5.8c-1.2,3-4.6,4.4-7.6,3.1l-71.4-29.8c-3-1.2-4.4-4.6-3.1-7.6l2.4-5.8c1.2-3,4.6-4.4,7.6-3.1Z"/>
      </g>
    </g>
  </g>
  <g class="cls-46">
    <g class="cls-38">
      <g class="cls-28">
        <path class="cls-17" d="M335,531.1l21.5,28.1c3.7,4.8,11.1,3.8,13.5-1.7l13.6-32.7c2.3-5.6-2.3-11.6-8.2-10.8l-35.1,4.5c-6,.8-8.9,7.7-5.2,12.5Z"/>
      </g>
    </g>
  </g>
  <g class="cls-34">
    <path class="cls-17" d="M568,819.8v-77.4c0-3.2,2.6-5.8,5.8-5.8h6.3c3.2,0,5.8,2.6,5.8,5.8v77.4c0,3.2-2.6,5.8-5.8,5.8h-6.3c-3.2,0-5.8-2.6-5.8-5.8Z"/>
  </g>
  <path class="cls-17" d="M583.7,860.3l17.7-30.6c3-5.2-.8-11.8-6.8-11.8h-35.4c-6,0-9.8,6.5-6.8,11.8l17.7,30.6c3,5.2,10.6,5.2,13.6,0Z"/>
  <g class="cls-6">
    <g class="cls-4">
      <g class="cls-20">
        <path class="cls-17" d="M761.9,777.1l-63.3-44.5c-2.6-1.8-3.3-5.5-1.4-8.1l3.6-5.1c1.8-2.6,5.5-3.3,8.1-1.4l63.3,44.5c2.6,1.8,3.3,5.5,1.4,8.1l-3.6,5.1c-1.8,2.6-5.5,3.3-8.1,1.4Z"/>
      </g>
    </g>
  </g>
  <g class="cls-47">
    <g class="cls-24">
      <g class="cls-9">
        <path class="cls-17" d="M804.1,787.5l-14.9-32.1c-2.5-5.5-10.1-6.1-13.5-1.2l-20.3,29c-3.5,4.9-.3,11.8,5.7,12.3l35.2,3.1c6,.5,10.3-5.6,7.8-11.1Z"/>
      </g>
    </g>
  </g>
  <g class="cls-23">
    <g class="cls-32">
      <g class="cls-13">
        <path class="cls-17" d="M371.3,747l67.9-37.2c2.8-1.5,6.3-.5,7.9,2.3l3,5.5c1.5,2.8.5,6.3-2.3,7.9l-67.9,37.2c-2.8,1.5-6.3.5-7.9-2.3l-3-5.5c-1.5-2.8-.5-6.3,2.3-7.9Z"/>
      </g>
    </g>
  </g>
  <g class="cls-5">
    <g class="cls-43">
      <g class="cls-36">
        <path class="cls-17" d="M343.3,780.3l35.4.8c6,.1,9.9-6.3,7.1-11.6l-17-31c-2.9-5.3-10.4-5.5-13.6-.3l-18.4,30.2c-3.1,5.2.5,11.8,6.5,11.9Z"/>
      </g>
    </g>
  </g>
</svg>